<svg id="svg" version="1.1" xmlns="http://www.w3.org/2000/svg" xmlns:xlink="http://www.w3.org/1999/xlink" width="50" height="50" viewBox="0, 0, 400,391.57212317666125"><g id="svgg"><path id="path0" d="M203.526 1.182 C 202.880 1.585,201.910 2.157,201.371 2.452 C 200.833 2.747,199.422 3.533,198.237 4.198 C 190.734 8.410,187.498 10.186,187.328 10.186 C 187.221 10.186,186.855 10.433,186.515 10.734 C 186.175 11.035,185.279 11.625,184.525 12.045 C 179.619 14.776,178.431 15.459,178.256 15.651 C 178.148 15.770,177.443 16.198,176.689 16.603 C 173.948 18.074,171.730 19.359,168.725 21.218 C 167.038 22.261,165.580 23.115,165.485 23.115 C 165.254 23.115,162.052 25.195,161.802 25.507 C 161.694 25.641,161.241 25.865,160.794 26.005 C 160.347 26.144,159.632 26.564,159.205 26.939 C 158.255 27.773,157.399 28.313,155.240 29.438 C 154.324 29.915,153.575 30.424,153.575 30.568 C 153.575 30.713,152.870 31.149,152.008 31.538 C 151.146 31.926,150.441 32.394,150.441 32.577 C 150.441 32.759,150.253 32.909,150.023 32.909 C 149.793 32.909,149.044 33.331,148.358 33.846 C 147.672 34.362,146.494 35.116,145.739 35.522 C 144.253 36.322,139.461 39.450,123.408 50.099 C 117.698 53.887,112.793 57.211,112.509 57.485 C 112.224 57.758,111.861 57.982,111.701 57.982 C 111.542 57.982,111.069 58.294,110.652 58.674 C 110.234 59.055,108.923 59.972,107.738 60.713 C 106.552 61.454,105.142 62.386,104.603 62.785 C 104.065 63.183,101.596 64.904,99.119 66.607 C 96.641 68.311,94.400 69.888,94.140 70.112 C 93.880 70.336,93.505 70.519,93.306 70.519 C 93.108 70.519,92.712 70.801,92.425 71.147 C 92.139 71.492,91.016 72.365,89.929 73.087 C 88.842 73.809,87.248 74.933,86.386 75.584 C 85.524 76.236,84.118 77.258,83.261 77.856 C 82.404 78.453,79.848 80.321,77.580 82.006 C 75.313 83.691,73.040 85.366,72.530 85.728 C 72.020 86.090,70.935 86.915,70.119 87.561 C 69.303 88.208,67.015 89.971,65.035 91.479 C 63.055 92.987,61.055 94.545,60.590 94.940 C 60.125 95.336,59.240 96.041,58.622 96.507 C 58.004 96.974,56.947 97.814,56.272 98.374 C 55.596 98.935,53.084 100.968,50.688 102.893 C 48.292 104.818,45.384 107.205,44.224 108.196 C 43.064 109.187,40.353 111.448,38.198 113.219 C 36.043 114.991,33.310 117.308,32.125 118.368 C 30.940 119.428,29.793 120.423,29.577 120.578 C 29.360 120.734,28.126 121.756,26.834 122.848 C 25.543 123.941,24.114 125.087,23.660 125.395 C 23.205 125.703,22.031 126.660,21.051 127.522 C 20.070 128.384,18.282 129.789,17.078 130.644 C 15.873 131.500,14.887 132.337,14.887 132.505 C 14.887 132.673,14.731 132.811,14.540 132.811 C 14.349 132.811,13.137 133.516,11.846 134.378 C 10.556 135.240,9.301 135.945,9.059 135.945 C 8.817 135.945,8.619 136.107,8.619 136.306 C 8.619 136.504,8.092 136.782,7.448 136.924 C 6.804 137.065,6.177 137.343,6.054 137.542 C 5.931 137.741,5.523 137.904,5.148 137.904 C 1.792 137.904,0.086 144.303,2.746 146.915 C 2.856 147.023,3.411 147.816,3.981 148.678 C 4.550 149.540,5.295 150.597,5.637 151.028 C 6.902 152.626,15.958 165.569,16.669 166.797 C 17.075 167.498,17.545 168.071,17.714 168.071 C 17.883 168.071,18.022 168.227,18.022 168.418 C 18.022 168.861,21.225 173.708,21.633 173.882 C 21.801 173.954,21.939 174.199,21.939 174.427 C 21.939 174.655,22.613 175.919,23.438 177.235 C 24.262 178.551,25.056 179.892,25.204 180.215 C 25.351 180.539,25.794 181.332,26.188 181.978 C 26.581 182.625,27.485 184.212,28.195 185.504 C 28.905 186.797,29.622 188.031,29.788 188.247 C 29.954 188.462,30.878 190.137,31.842 191.969 C 32.806 193.800,34.173 196.357,34.880 197.649 C 35.587 198.942,37.259 202.116,38.596 204.701 C 39.933 207.287,41.579 210.372,42.254 211.557 C 42.929 212.742,43.879 214.505,44.365 215.475 C 44.851 216.445,45.337 217.326,45.445 217.434 C 45.553 217.542,45.992 218.335,46.421 219.197 C 46.850 220.059,47.291 220.852,47.401 220.960 C 47.629 221.185,48.476 222.718,50.554 226.668 C 52.326 230.037,53.023 231.280,53.283 231.538 C 53.392 231.645,54.086 232.968,54.826 234.476 C 55.566 235.984,56.271 237.307,56.392 237.414 C 56.513 237.522,56.870 238.139,57.185 238.786 C 57.500 239.432,58.544 241.371,59.505 243.095 C 60.466 244.819,61.722 247.111,62.295 248.188 C 62.869 249.265,64.633 252.439,66.215 255.240 C 67.798 258.041,69.281 260.728,69.512 261.211 C 69.743 261.695,70.064 262.091,70.225 262.093 C 70.387 262.095,70.520 262.316,70.522 262.586 C 70.524 263.080,70.697 263.437,72.661 266.993 C 73.255 268.071,74.471 270.362,75.363 272.086 C 76.254 273.810,77.071 275.309,77.179 275.416 C 77.287 275.524,77.726 276.317,78.155 277.179 C 78.584 278.041,79.025 278.834,79.134 278.942 C 79.244 279.050,79.724 279.931,80.200 280.901 C 80.676 281.871,81.796 283.986,82.687 285.602 C 83.579 287.218,84.839 289.510,85.488 290.695 C 86.137 291.881,87.110 293.643,87.650 294.613 C 88.190 295.583,89.092 297.258,89.654 298.335 C 90.216 299.412,90.789 300.382,90.927 300.490 C 91.065 300.597,91.314 301.126,91.481 301.665 C 91.649 302.204,92.201 303.258,92.710 304.009 C 93.218 304.759,93.634 305.582,93.634 305.837 C 93.634 306.092,93.770 306.360,93.938 306.432 C 94.105 306.503,94.865 307.796,95.627 309.305 C 96.389 310.813,97.605 313.105,98.329 314.398 C 99.054 315.690,100.096 317.630,100.646 318.707 C 101.196 319.785,101.739 320.754,101.851 320.862 C 102.061 321.063,102.425 321.722,105.000 326.574 C 106.831 330.024,107.487 331.189,107.738 331.440 C 107.845 331.548,108.264 332.253,108.667 333.007 C 109.071 333.761,109.934 335.348,110.587 336.533 C 111.239 337.718,112.343 339.745,113.041 341.038 C 113.738 342.331,114.945 344.508,115.724 345.875 C 116.503 347.242,117.140 348.410,117.140 348.470 C 117.140 348.530,118.246 350.496,119.598 352.840 C 120.950 355.183,122.386 357.799,122.790 358.652 C 123.193 359.505,124.076 361.092,124.753 362.178 C 125.429 363.264,126.483 365.167,127.093 366.405 C 127.704 367.644,128.358 368.658,128.548 368.658 C 128.738 368.658,128.893 368.852,128.893 369.089 C 128.893 369.584,130.107 372.284,130.461 372.576 C 130.695 372.769,131.879 374.996,134.837 380.803 C 135.660 382.419,136.334 384.306,136.335 384.996 C 136.343 390.404,140.942 390.041,152.460 383.724 C 153.032 383.410,153.702 383.154,153.948 383.154 C 154.195 383.154,155.101 382.814,155.961 382.398 C 156.822 381.982,158.086 381.519,158.770 381.368 C 159.454 381.218,160.328 380.941,160.712 380.753 C 161.096 380.565,161.725 380.257,162.109 380.069 C 162.493 379.881,163.372 379.603,164.063 379.452 C 164.754 379.300,165.420 379.013,165.543 378.814 C 165.666 378.615,166.108 378.452,166.527 378.452 C 166.945 378.452,167.288 378.320,167.290 378.159 C 167.292 377.997,168.394 377.529,169.739 377.119 C 171.084 376.709,172.360 376.255,172.576 376.109 C 172.791 375.964,173.849 375.527,174.927 375.138 C 176.004 374.750,177.053 374.279,177.258 374.091 C 177.462 373.904,177.965 373.751,178.374 373.751 C 178.783 373.751,179.673 373.502,180.352 373.198 C 181.031 372.894,182.556 372.352,183.741 371.995 C 184.927 371.637,186.249 371.190,186.680 371.001 C 187.111 370.811,188.345 370.379,189.422 370.040 C 190.500 369.701,191.734 369.271,192.165 369.084 C 192.595 368.897,193.741 368.532,194.711 368.272 C 195.681 368.013,197.003 367.568,197.649 367.284 C 198.296 366.999,199.530 366.555,200.392 366.295 C 201.254 366.036,202.488 365.606,203.134 365.341 C 203.781 365.076,205.279 364.542,206.464 364.154 C 207.649 363.766,208.795 363.324,209.011 363.170 C 209.226 363.017,209.974 362.783,210.674 362.651 C 211.373 362.519,212.684 362.053,213.587 361.617 C 214.491 361.180,215.546 360.823,215.932 360.823 C 216.616 360.823,219.372 359.905,220.583 359.275 C 220.915 359.102,221.927 358.835,222.834 358.682 C 223.740 358.529,224.581 358.243,224.703 358.046 C 224.824 357.849,225.432 357.689,226.053 357.689 C 226.674 357.689,227.279 357.532,227.397 357.341 C 227.515 357.150,228.274 356.875,229.085 356.730 C 230.773 356.427,233.010 355.777,233.929 355.322 C 234.274 355.151,235.378 354.888,236.382 354.738 C 237.386 354.587,238.304 354.308,238.422 354.117 C 238.539 353.927,239.144 353.771,239.765 353.771 C 240.386 353.771,240.989 353.618,241.104 353.431 C 241.220 353.244,242.193 352.974,243.266 352.832 C 244.339 352.689,245.323 352.402,245.453 352.192 C 245.582 351.983,246.121 351.812,246.649 351.812 C 247.178 351.812,247.917 351.648,248.291 351.448 C 248.665 351.249,249.941 350.806,251.126 350.464 C 255.427 349.225,257.606 348.562,258.374 348.259 C 258.805 348.089,260.127 347.664,261.312 347.314 C 262.498 346.964,263.773 346.510,264.147 346.306 C 264.522 346.102,265.091 345.935,265.412 345.935 C 265.734 345.935,267.279 345.511,268.846 344.992 C 270.413 344.473,272.840 343.740,274.241 343.363 C 275.642 342.987,276.964 342.552,277.179 342.398 C 277.395 342.243,278.431 341.992,279.483 341.840 C 280.535 341.687,281.857 341.379,282.421 341.154 C 282.986 340.929,283.800 340.602,284.231 340.427 C 284.940 340.139,287.585 339.585,290.993 339.012 C 291.695 338.894,292.367 338.640,292.485 338.448 C 292.604 338.257,293.146 338.100,293.690 338.100 C 294.858 338.100,299.598 336.986,300.596 336.478 C 300.978 336.283,302.085 336.015,303.055 335.882 C 304.026 335.749,304.914 335.488,305.029 335.303 C 305.143 335.117,305.670 334.966,306.199 334.966 C 306.728 334.966,307.467 334.802,307.841 334.602 C 308.878 334.048,312.487 333.007,313.371 333.007 C 313.802 333.007,314.255 332.846,314.377 332.649 C 314.498 332.452,315.346 332.168,316.261 332.017 C 317.175 331.866,318.100 331.612,318.315 331.451 C 318.531 331.291,319.941 330.841,321.450 330.451 C 322.958 330.062,324.368 329.624,324.584 329.477 C 324.799 329.331,326.121 328.911,327.522 328.543 C 328.923 328.175,330.421 327.730,330.852 327.552 C 331.283 327.375,333.046 326.913,334.770 326.526 C 336.494 326.138,338.080 325.719,338.296 325.594 C 338.511 325.469,339.657 325.158,340.842 324.903 C 346.172 323.753,352.750 321.991,353.164 321.603 C 353.368 321.411,353.833 321.254,354.196 321.254 C 354.855 321.254,358.358 320.276,359.843 319.677 C 360.736 319.318,363.629 318.544,365.230 318.237 C 365.823 318.124,366.308 317.874,366.308 317.683 C 366.308 317.492,366.754 317.336,367.300 317.336 C 367.845 317.336,368.924 317.071,369.698 316.748 C 370.472 316.425,371.436 316.161,371.840 316.161 C 372.245 316.161,372.576 316.009,372.576 315.823 C 372.576 315.638,373.470 315.380,374.563 315.251 C 376.492 315.022,378.803 314.414,380.035 313.810 C 380.367 313.647,381.594 313.383,382.762 313.222 C 383.930 313.062,385.157 312.790,385.489 312.619 C 385.821 312.448,387.679 312.005,389.618 311.635 C 391.557 311.264,393.311 310.809,393.516 310.623 C 393.721 310.436,394.178 310.284,394.533 310.284 C 395.449 310.284,396.444 309.053,396.919 307.334 C 397.763 304.277,395.959 301.273,393.280 301.273 C 392.688 301.273,392.556 300.965,392.556 299.584 C 392.556 297.854,391.465 295.174,389.520 292.125 C 388.315 290.236,381.978 277.749,381.978 277.262 C 381.978 277.082,381.432 275.755,380.765 274.314 C 380.097 272.873,379.392 271.298,379.198 270.813 C 378.610 269.348,378.153 268.276,377.104 265.904 C 376.553 264.659,376.102 263.546,376.102 263.430 C 376.102 263.315,375.661 262.258,375.122 261.080 C 374.584 259.902,374.143 258.838,374.143 258.716 C 374.143 258.425,373.051 255.920,372.345 254.592 C 372.041 254.020,371.792 253.364,371.792 253.133 C 371.792 252.903,371.333 251.696,370.772 250.451 C 370.211 249.207,369.576 247.747,369.360 247.209 C 369.144 246.670,368.746 245.700,368.476 245.054 C 368.206 244.407,367.802 243.438,367.579 242.899 C 367.356 242.360,366.714 240.932,366.153 239.726 C 365.591 238.519,365.132 237.400,365.132 237.239 C 365.132 237.077,364.847 236.301,364.498 235.515 C 364.149 234.728,363.612 233.467,363.304 232.713 C 362.996 231.959,362.576 231.036,362.371 230.662 C 362.166 230.287,361.998 229.807,361.998 229.595 C 361.998 229.382,361.578 228.278,361.064 227.141 C 360.550 226.004,359.907 224.456,359.634 223.702 C 359.361 222.948,358.924 221.802,358.662 221.156 C 358.168 219.935,357.031 217.031,356.513 215.671 C 356.250 214.979,355.472 212.962,354.549 210.578 C 354.382 210.147,353.946 208.913,353.579 207.835 C 353.213 206.758,352.692 205.348,352.421 204.701 C 352.151 204.055,351.697 202.909,351.413 202.155 C 351.129 201.401,350.775 200.607,350.625 200.392 C 350.475 200.176,350.232 199.496,350.085 198.879 C 349.937 198.263,349.490 197.029,349.091 196.137 C 348.693 195.245,348.041 193.546,347.644 192.360 C 347.246 191.175,346.810 190.118,346.673 190.010 C 346.537 189.902,346.293 189.197,346.132 188.443 C 345.970 187.689,345.530 186.366,345.153 185.504 C 344.776 184.643,343.897 182.351,343.200 180.411 C 342.502 178.472,341.792 176.533,341.622 176.102 C 341.452 175.671,341.093 174.701,340.823 173.947 C 340.554 173.193,340.118 172.047,339.856 171.401 C 339.594 170.754,339.047 169.123,338.642 167.777 C 338.236 166.430,337.772 165.328,337.610 165.328 C 337.449 165.328,337.316 164.982,337.316 164.558 C 337.316 163.732,336.329 160.426,335.787 159.439 C 335.605 159.108,335.324 158.233,335.162 157.493 C 334.999 156.753,334.733 155.877,334.570 155.547 C 333.852 154.092,333.426 152.893,333.176 151.629 C 333.028 150.882,332.774 150.000,332.611 149.670 C 332.089 148.612,331.568 147.170,330.835 144.760 C 330.443 143.467,329.997 142.233,329.846 142.018 C 329.695 141.802,329.440 141.015,329.280 140.268 C 329.120 139.520,328.856 138.639,328.693 138.309 C 327.969 136.841,327.549 135.652,327.304 134.378 C 327.159 133.624,326.913 132.831,326.758 132.615 C 326.602 132.400,326.168 131.166,325.793 129.873 C 325.418 128.580,324.960 127.169,324.775 126.738 C 324.589 126.308,323.710 123.751,322.821 121.058 C 321.931 118.364,321.058 115.808,320.880 115.377 C 320.702 114.946,320.242 113.448,319.857 112.047 C 319.472 110.646,319.028 109.324,318.869 109.109 C 318.711 108.893,318.457 108.054,318.306 107.243 C 318.155 106.433,317.874 105.673,317.683 105.555 C 317.492 105.437,317.336 104.921,317.336 104.407 C 317.336 103.894,317.160 103.365,316.944 103.232 C 316.729 103.099,316.552 102.654,316.552 102.243 C 316.552 101.523,315.689 98.577,315.005 96.964 C 314.823 96.533,314.366 94.946,313.990 93.438 C 313.614 91.929,313.175 90.519,313.015 90.304 C 312.855 90.088,312.600 89.164,312.449 88.249 C 312.298 87.334,312.014 86.486,311.817 86.365 C 311.620 86.243,311.459 85.724,311.459 85.211 C 311.459 84.697,311.306 84.183,311.119 84.067 C 310.932 83.951,310.664 83.140,310.524 82.264 C 310.384 81.388,310.103 80.370,309.900 80.002 C 309.444 79.178,306.366 69.267,306.366 68.624 C 306.366 68.367,306.209 67.852,306.017 67.478 C 305.825 67.103,305.375 65.739,305.017 64.447 C 304.658 63.154,304.216 61.743,304.034 61.312 C 303.853 60.881,303.398 59.295,303.024 57.786 C 302.650 56.278,302.191 54.877,302.004 54.672 C 301.818 54.467,301.665 54.003,301.665 53.640 C 301.665 52.981,300.687 49.478,300.089 47.992 C 299.655 46.916,298.889 43.950,298.645 42.406 C 298.535 41.703,298.287 41.032,298.096 40.914 C 297.904 40.795,297.747 40.376,297.747 39.983 C 297.747 39.186,296.679 35.412,296.177 34.436 C 295.999 34.090,295.731 32.986,295.580 31.982 C 295.429 30.978,295.150 30.060,294.960 29.943 C 294.769 29.825,294.609 28.725,294.604 27.499 C 294.592 24.394,289.203 19.197,285.997 19.197 C 285.590 19.197,285.160 19.041,285.042 18.850 C 284.924 18.658,284.196 18.384,283.425 18.239 C 282.654 18.094,281.251 17.545,280.309 17.019 C 279.367 16.493,278.233 16.063,277.789 16.063 C 277.346 16.063,276.983 15.929,276.983 15.767 C 276.983 15.381,275.165 14.582,273.552 14.260 C 272.854 14.120,272.282 13.852,272.282 13.663 C 272.282 13.475,271.852 13.320,271.326 13.320 C 270.800 13.320,270.271 13.160,270.150 12.965 C 270.029 12.770,269.049 12.489,267.972 12.341 C 266.895 12.193,266.014 11.912,266.014 11.716 C 266.014 11.521,265.583 11.361,265.057 11.361 C 264.531 11.361,263.995 11.190,263.866 10.981 C 263.737 10.772,262.757 10.485,261.688 10.343 C 260.620 10.201,259.745 9.932,259.745 9.744 C 259.745 9.556,259.413 9.403,259.007 9.403 C 258.600 9.403,257.763 9.139,257.146 8.817 C 256.528 8.495,255.627 8.231,255.142 8.230 C 254.657 8.228,254.261 8.051,254.261 7.835 C 254.261 7.620,253.918 7.444,253.500 7.444 C 253.082 7.444,252.640 7.283,252.519 7.086 C 252.397 6.889,251.549 6.605,250.635 6.454 C 249.720 6.303,248.795 6.055,248.580 5.903 C 247.937 5.449,244.854 4.597,239.765 3.468 C 238.795 3.253,235.357 2.911,232.125 2.709 C 228.893 2.506,225.896 2.175,225.465 1.974 C 225.034 1.772,223.271 1.522,221.548 1.418 C 219.824 1.314,217.532 1.051,216.454 0.834 C 212.911 0.119,204.884 0.335,203.526 1.182 M222.723 7.058 C 224.231 7.258,227.405 7.692,229.775 8.023 C 232.145 8.353,234.966 8.722,236.043 8.843 C 238.078 9.071,242.517 10.046,243.879 10.564 C 244.310 10.728,245.808 11.228,247.209 11.675 C 248.609 12.122,253.457 13.734,257.982 15.257 C 262.507 16.780,267.620 18.482,269.344 19.037 C 271.068 19.593,274.153 20.865,276.200 21.863 C 278.247 22.862,281.231 24.213,282.832 24.866 C 286.393 26.318,286.977 27.190,284.136 26.813 C 281.916 26.518,281.008 26.883,276.983 29.690 C 273.784 31.921,267.450 36.542,267.189 36.835 C 267.081 36.956,265.054 38.536,262.684 40.346 C 256.587 45.002,254.256 47.001,249.444 51.699 C 247.119 53.970,245.075 55.877,244.902 55.938 C 244.536 56.066,244.033 55.130,236.624 40.548 C 233.559 34.515,230.564 28.697,229.968 27.620 C 229.373 26.543,228.361 24.691,227.720 23.506 C 226.124 20.557,223.572 16.274,220.448 11.299 C 217.108 5.980,216.941 6.291,222.723 7.058 M211.446 8.913 C 211.587 9.290,212.375 10.703,213.197 12.054 C 214.019 13.404,214.691 14.580,214.691 14.666 C 214.691 14.752,215.454 16.115,216.386 17.695 C 217.319 19.275,218.843 21.978,219.774 23.702 C 220.704 25.426,221.947 27.718,222.536 28.795 C 223.125 29.873,226.695 36.836,230.470 44.270 C 239.536 62.125,239.300 61.686,240.701 63.297 C 243.397 66.396,245.559 65.730,251.524 59.962 C 257.394 54.285,258.549 53.226,260.529 51.701 C 261.499 50.954,262.380 50.247,262.488 50.131 C 262.595 50.014,264.623 48.435,266.993 46.621 C 269.363 44.807,271.391 43.215,271.499 43.082 C 271.798 42.714,285.496 32.909,285.711 32.909 C 286.008 32.909,286.686 34.812,287.525 38.002 C 287.951 39.618,288.762 42.527,289.328 44.466 C 289.894 46.405,290.503 48.521,290.680 49.167 C 291.208 51.088,292.182 54.504,292.859 56.807 C 293.207 57.992,293.640 59.491,293.820 60.137 C 294.001 60.784,294.621 62.811,295.200 64.643 C 296.270 68.034,297.150 70.954,297.737 73.066 C 297.916 73.712,298.414 75.299,298.843 76.592 C 299.744 79.309,300.924 83.062,303.217 90.500 C 304.113 93.408,304.998 96.229,305.183 96.768 C 305.369 97.307,305.823 98.805,306.193 100.098 C 306.563 101.391,307.257 103.683,307.734 105.191 C 310.428 113.696,312.896 121.308,314.023 124.584 C 314.727 126.631,315.419 128.746,315.560 129.285 C 315.702 129.824,315.971 130.617,316.157 131.048 C 316.344 131.479,317.227 134.035,318.119 136.729 C 319.012 139.422,319.894 141.978,320.079 142.409 C 320.263 142.840,320.704 144.163,321.058 145.348 C 321.412 146.533,321.857 147.855,322.047 148.286 C 322.237 148.717,324.067 154.094,326.113 160.235 C 329.505 170.416,331.564 176.316,333.975 182.762 C 334.458 184.055,334.952 185.377,335.072 185.700 C 337.133 191.239,346.484 215.882,346.742 216.454 C 346.937 216.885,348.072 219.794,349.265 222.919 C 350.459 226.043,351.632 229.040,351.872 229.579 C 352.382 230.724,352.403 230.773,354.757 236.578 C 355.751 239.027,357.081 242.161,357.714 243.542 C 358.346 244.923,358.864 246.146,358.864 246.260 C 358.864 246.375,359.226 247.296,359.669 248.307 C 360.112 249.319,360.622 250.500,360.804 250.930 C 360.986 251.361,361.417 252.358,361.762 253.144 C 362.107 253.931,362.390 254.675,362.390 254.798 C 362.390 254.920,362.831 255.984,363.369 257.162 C 363.908 258.340,364.349 259.398,364.349 259.513 C 364.349 259.628,364.799 260.741,365.350 261.986 C 365.901 263.232,366.495 264.603,366.669 265.034 C 366.844 265.465,367.177 266.259,367.409 266.797 C 367.642 267.336,368.175 268.570,368.593 269.540 C 369.012 270.509,370.366 273.683,371.602 276.592 C 376.167 287.334,381.460 297.392,384.772 301.620 C 385.877 303.029,385.680 303.432,383.643 303.937 C 382.620 304.190,379.579 304.934,376.885 305.588 C 374.192 306.243,371.107 307.027,370.029 307.332 C 366.449 308.343,361.465 309.810,356.709 311.251 C 350.350 313.178,345.160 314.631,342.018 315.364 C 339.237 316.013,329.646 318.537,328.697 318.870 C 328.159 319.060,326.660 319.511,325.367 319.874 C 324.074 320.236,322.576 320.674,322.037 320.847 C 321.499 321.020,320.000 321.471,318.707 321.850 C 317.414 322.229,316.004 322.671,315.573 322.833 C 315.142 322.995,313.467 323.513,311.851 323.983 C 310.235 324.454,307.502 325.275,305.779 325.807 C 302.091 326.945,296.239 328.527,292.654 329.355 C 287.849 330.465,287.356 330.587,283.448 331.627 C 281.293 332.200,278.825 332.838,277.963 333.043 C 277.101 333.249,275.955 333.571,275.416 333.760 C 274.878 333.948,273.467 334.373,272.282 334.705 C 268.276 335.828,263.095 337.394,258.962 338.734 C 256.699 339.467,253.879 340.351,252.693 340.699 C 251.508 341.047,250.233 341.486,249.858 341.675 C 249.484 341.863,248.971 342.018,248.719 342.018 C 248.466 342.018,246.304 342.619,243.914 343.354 C 241.524 344.089,238.511 344.989,237.218 345.356 C 233.221 346.488,231.402 346.998,229.775 347.444 C 223.448 349.179,211.044 353.179,204.701 355.529 C 202.762 356.248,199.853 357.306,198.237 357.881 C 196.621 358.456,194.946 359.074,194.515 359.255 C 194.084 359.435,192.057 360.143,190.010 360.829 C 187.963 361.514,185.098 362.498,183.643 363.016 C 182.189 363.533,179.721 364.412,178.159 364.968 C 176.596 365.524,174.966 366.135,174.535 366.327 C 174.104 366.519,172.341 367.215,170.617 367.875 C 167.195 369.184,166.971 369.277,163.652 370.772 C 162.407 371.333,161.165 371.792,160.890 371.792 C 160.616 371.792,160.224 371.940,160.020 372.119 C 159.815 372.299,158.766 372.757,157.689 373.136 C 156.611 373.515,155.174 374.073,154.495 374.376 C 153.816 374.679,153.141 374.927,152.995 374.927 C 152.432 374.927,146.600 377.875,144.264 379.341 C 141.769 380.907,140.646 381.020,140.646 379.708 C 140.646 379.038,139.398 375.622,138.111 372.772 C 137.819 372.125,137.024 370.362,136.343 368.854 C 134.902 365.663,129.536 354.925,126.554 349.265 C 122.726 342.002,115.706 328.850,114.007 325.759 C 112.007 322.122,107.241 313.247,105.276 309.500 C 104.202 307.453,102.842 304.897,102.254 303.820 C 101.665 302.742,100.075 299.745,98.719 297.160 C 97.363 294.574,95.818 291.665,95.286 290.695 C 94.753 289.726,93.635 287.654,92.800 286.092 C 91.966 284.530,90.552 281.885,89.659 280.215 C 88.043 277.195,86.298 273.896,82.561 266.797 C 81.483 264.750,79.920 261.870,79.086 260.396 C 78.253 258.922,77.571 257.648,77.571 257.565 C 77.571 257.481,75.044 252.869,71.956 247.316 C 68.867 241.762,65.584 235.808,64.658 234.084 C 63.733 232.360,62.491 230.069,61.898 228.991 C 59.235 224.154,58.571 222.937,57.090 220.176 C 56.223 218.560,55.387 217.062,55.233 216.846 C 54.896 216.377,53.350 213.537,50.541 208.227 C 49.401 206.072,48.339 204.133,48.182 203.918 C 48.025 203.702,46.926 201.675,45.740 199.412 C 44.555 197.150,43.239 194.682,42.817 193.928 C 42.394 193.173,41.112 190.793,39.968 188.639 C 38.823 186.484,37.141 183.399,36.229 181.783 C 35.318 180.167,34.225 178.227,33.800 177.473 C 30.086 170.873,24.017 161.574,17.309 152.204 C 12.055 144.865,11.927 144.576,13.599 143.814 C 16.255 142.604,22.607 138.008,30.972 131.244 C 32.728 129.824,40.608 123.235,46.597 118.178 C 49.044 116.112,49.382 115.835,54.065 112.047 C 56.327 110.217,58.266 108.630,58.374 108.521 C 58.616 108.277,63.123 104.681,66.797 101.801 C 71.247 98.313,79.017 92.469,83.643 89.130 C 86.014 87.419,88.041 85.917,88.149 85.792 C 88.257 85.667,89.755 84.567,91.479 83.348 C 93.203 82.129,94.796 80.976,95.020 80.785 C 95.243 80.594,99.034 77.948,103.443 74.905 C 107.852 71.862,111.636 69.228,111.851 69.051 C 113.253 67.905,144.511 47.345,151.028 43.281 C 153.399 41.803,155.883 40.187,156.550 39.690 C 157.217 39.192,157.890 38.786,158.045 38.786 C 158.201 38.786,158.890 38.370,159.576 37.862 C 160.720 37.015,182.368 23.915,185.826 21.977 C 186.649 21.515,189.558 19.849,192.290 18.274 C 195.022 16.698,198.315 14.822,199.608 14.105 C 211.613 7.441,210.997 7.711,211.446 8.913 M210.970 73.719 C 208.235 74.639,204.222 76.119,203.075 76.630 C 202.396 76.932,201.739 77.179,201.616 77.179 C 201.492 77.179,200.236 77.708,198.825 78.355 C 197.413 79.001,196.157 79.530,196.034 79.530 C 195.910 79.530,195.253 79.782,194.574 80.089 C 193.895 80.397,192.547 80.997,191.577 81.424 C 186.836 83.509,183.702 84.926,178.844 87.181 C 177.336 87.881,175.220 88.847,174.143 89.328 C 169.774 91.278,153.009 99.777,147.698 102.734 C 146.729 103.274,144.789 104.332,143.389 105.085 C 141.988 105.839,139.079 107.476,136.925 108.724 C 134.770 109.972,132.214 111.430,131.244 111.964 C 130.274 112.498,129.305 113.070,129.089 113.234 C 128.874 113.398,127.904 113.973,126.934 114.512 C 125.965 115.051,123.144 116.747,120.666 118.281 C 118.188 119.815,115.896 121.182,115.573 121.318 C 115.250 121.454,114.456 121.953,113.810 122.426 C 113.164 122.899,112.458 123.358,112.243 123.446 C 110.028 124.350,81.178 144.220,79.922 145.708 C 79.814 145.835,78.668 146.720,77.375 147.674 C 76.082 148.628,74.936 149.513,74.829 149.641 C 74.721 149.769,73.839 150.481,72.870 151.224 C 71.900 151.967,71.019 152.668,70.911 152.781 C 70.740 152.961,68.895 154.532,64.884 157.912 C 63.391 159.171,63.567 159.012,58.176 163.957 C 51.490 170.089,51.437 170.156,52.928 170.629 C 53.641 170.855,56.690 169.178,57.591 168.065 C 57.827 167.772,65.035 161.713,67.208 159.980 C 68.060 159.301,70.205 157.589,71.976 156.176 C 76.984 152.181,87.102 144.691,92.162 141.234 C 101.633 134.763,118.814 123.800,119.487 123.800 C 119.704 123.800,119.882 123.624,119.882 123.408 C 119.882 123.193,120.061 123.017,120.278 123.017 C 120.496 123.017,122.215 122.066,124.098 120.905 C 125.981 119.743,128.227 118.397,129.089 117.913 C 143.482 109.834,149.304 106.701,158.864 101.894 C 169.560 96.515,172.237 95.219,179.432 91.941 C 181.048 91.204,183.428 90.119,184.721 89.529 C 186.014 88.939,187.866 88.143,188.837 87.759 C 189.808 87.375,191.980 86.424,193.665 85.646 C 195.349 84.868,196.893 84.231,197.096 84.231 C 197.298 84.231,197.770 84.061,198.144 83.854 C 199.188 83.276,203.015 81.634,204.114 81.293 C 205.212 80.952,209.040 79.310,210.083 78.732 C 210.457 78.524,211.206 78.355,211.748 78.355 C 212.289 78.355,212.733 78.178,212.733 77.963 C 212.733 77.747,212.973 77.571,213.267 77.571 C 214.178 77.571,215.867 75.990,215.867 75.137 C 215.867 73.481,213.614 72.829,210.970 73.719 M166.503 121.315 C 164.191 122.086,160.912 123.576,150.245 128.707 C 147.659 129.950,143.869 131.752,141.822 132.711 C 131.187 137.691,121.378 142.516,117.140 144.852 C 110.259 148.644,104.564 152.130,100.194 155.226 C 98.739 156.257,97.388 157.101,97.191 157.101 C 96.994 157.101,96.774 157.234,96.703 157.398 C 96.631 157.561,95.779 158.307,94.809 159.057 C 91.384 161.703,89.678 163.497,89.797 164.326 C 89.929 165.244,91.283 165.690,91.283 164.815 C 91.283 163.893,105.169 154.358,106.512 154.358 C 106.755 154.358,106.954 154.182,106.954 153.967 C 106.954 153.751,107.105 153.575,107.290 153.575 C 107.474 153.575,109.193 152.673,111.109 151.570 C 114.412 149.670,129.170 142.267,132.053 141.065 C 133.294 140.547,138.886 137.974,143.585 135.758 C 153.157 131.245,166.564 124.415,167.649 123.500 C 169.571 121.879,168.864 120.529,166.503 121.315 M175.318 160.098 C 168.010 160.587,157.174 164.630,151.853 168.853 C 143.063 175.829,135.388 185.055,131.484 193.340 C 127.966 200.806,127.522 203.112,127.522 213.908 C 127.522 222.175,127.801 225.367,128.892 229.579 C 129.869 233.348,130.632 235.884,131.486 238.194 L 132.425 240.737 131.541 241.417 C 131.054 241.792,130.527 242.102,130.369 242.107 C 129.234 242.141,119.460 249.158,117.723 251.185 C 103.632 267.629,113.710 301.473,130.596 294.417 C 131.369 294.094,132.627 293.830,133.391 293.830 C 134.155 293.830,135.087 293.669,135.461 293.473 C 135.835 293.278,137.904 292.282,140.059 291.261 C 142.214 290.239,145.958 288.460,148.381 287.307 C 150.803 286.154,152.881 285.211,152.998 285.211 C 153.115 285.211,157.480 283.110,162.698 280.542 C 167.915 277.974,173.771 275.236,175.710 274.457 C 177.649 273.679,179.542 272.871,179.916 272.662 C 180.290 272.453,180.763 272.282,180.966 272.282 C 181.326 272.282,183.108 271.493,190.010 268.277 C 191.841 267.423,194.221 266.384,195.299 265.967 C 196.376 265.550,197.610 265.046,198.041 264.847 C 198.472 264.648,201.293 263.666,204.310 262.666 C 210.581 260.586,219.031 257.590,220.764 256.831 C 221.935 256.319,226.912 254.443,232.125 252.550 C 233.634 252.003,238.482 250.377,242.899 248.937 C 247.316 247.498,251.283 246.176,251.714 246.001 C 252.145 245.826,254.878 244.889,257.786 243.919 C 260.695 242.949,266.954 240.807,271.694 239.159 C 276.435 237.511,281.019 235.937,281.881 235.660 C 282.742 235.383,284.770 234.618,286.386 233.960 C 288.002 233.302,290.823 232.298,292.654 231.729 C 294.486 231.160,296.756 230.267,297.699 229.745 C 298.642 229.223,299.713 228.795,300.080 228.795 C 300.447 228.795,302.509 227.740,304.662 226.451 C 306.816 225.161,309.661 223.760,310.986 223.336 C 317.783 221.165,319.026 218.723,318.176 209.207 C 316.916 195.101,311.661 187.665,300.241 183.827 C 289.988 180.380,282.368 180.117,274.900 182.953 C 273.646 183.429,272.572 183.757,272.515 183.682 C 272.457 183.607,272.105 182.752,271.732 181.783 C 269.047 174.789,263.701 169.565,257.199 167.582 C 242.538 163.109,228.900 166.125,217.656 176.324 C 213.960 179.677,214.544 179.670,211.262 176.396 C 200.463 165.622,186.612 159.342,175.318 160.098 M324.780 265.801 C 322.142 266.335,316.697 267.745,314.985 268.337 C 314.447 268.523,312.948 268.976,311.655 269.343 C 309.174 270.047,292.229 275.630,290.891 276.184 C 290.460 276.363,289.226 276.808,288.149 277.174 C 283.747 278.670,280.667 279.795,280.025 280.142 C 279.651 280.344,279.148 280.509,278.909 280.509 C 278.669 280.509,277.917 280.757,277.238 281.059 C 276.559 281.361,274.682 282.080,273.066 282.655 C 271.450 283.231,269.510 283.943,268.756 284.238 C 268.002 284.533,264.035 286.035,259.941 287.576 C 252.674 290.312,244.323 293.647,238.198 296.259 C 237.659 296.489,236.866 296.819,236.435 296.994 C 236.004 297.168,234.632 297.762,233.387 298.313 C 232.142 298.864,231.052 299.314,230.966 299.314 C 230.828 299.314,229.298 299.990,224.094 302.350 C 223.340 302.692,221.841 303.350,220.764 303.811 C 212.704 307.263,188.940 319.226,186.039 321.292 C 185.463 321.702,184.893 322.037,184.772 322.037 C 184.651 322.037,182.916 323.011,180.915 324.201 C 178.914 325.391,177.013 326.511,176.690 326.689 C 175.633 327.273,175.715 328.697,176.805 328.697 C 177.330 328.697,183.997 325.566,191.622 321.740 C 204.404 315.325,210.186 312.520,215.279 310.264 C 216.357 309.787,218.344 308.891,219.696 308.273 C 221.049 307.655,222.254 307.150,222.375 307.150 C 222.497 307.150,223.739 306.621,225.135 305.975 C 226.532 305.328,227.892 304.799,228.157 304.799 C 228.422 304.799,228.806 304.649,229.011 304.465 C 229.215 304.281,232.292 302.943,235.847 301.492 C 239.403 300.040,242.664 298.701,243.095 298.516 C 243.526 298.331,245.730 297.444,247.992 296.546 C 250.255 295.647,252.635 294.691,253.281 294.422 C 253.928 294.153,255.779 293.447,257.395 292.855 C 259.011 292.263,260.686 291.644,261.117 291.479 C 262.608 290.911,265.429 289.817,266.210 289.504 C 266.641 289.331,267.875 288.892,268.952 288.530 C 270.029 288.167,271.263 287.727,271.694 287.551 C 272.618 287.175,277.137 285.564,279.922 284.618 C 280.999 284.252,282.233 283.808,282.664 283.632 C 283.095 283.457,284.329 283.016,285.406 282.653 C 286.484 282.290,287.718 281.842,288.149 281.657 C 289.450 281.097,315.581 272.462,321.254 270.717 C 324.163 269.823,327.074 268.850,327.724 268.557 C 328.373 268.263,329.387 267.840,329.976 267.616 C 333.504 266.275,329.442 264.856,324.780 265.801 " stroke="none" fill="#050505" fill-rule="evenodd"></path><path id="path1" d="M219.493 8.724 C 220.084 9.499,220.568 10.307,220.568 10.519 C 220.568 10.731,220.703 10.963,220.868 11.035 C 221.169 11.166,224.486 16.342,224.486 16.681 C 224.486 16.780,224.959 17.608,225.537 18.519 C 227.577 21.734,229.330 24.983,234.570 35.260 C 239.510 44.945,244.300 54.224,244.750 54.980 C 244.858 55.160,246.998 53.301,249.505 50.849 C 254.025 46.428,255.610 45.051,260.529 41.268 C 261.929 40.191,265.224 37.649,267.851 35.619 C 274.212 30.704,279.594 27.000,281.070 26.520 C 281.731 26.306,282.537 26.048,282.860 25.948 C 283.382 25.786,283.382 25.743,282.860 25.561 C 282.537 25.448,280.117 24.323,277.482 23.060 C 274.848 21.797,272.583 20.764,272.449 20.764 C 272.314 20.764,271.649 20.512,270.970 20.205 C 270.291 19.897,267.356 18.914,264.447 18.019 C 259.566 16.518,257.238 15.730,249.755 13.045 C 244.460 11.146,239.124 9.844,234.082 9.223 C 231.282 8.878,228.110 8.415,227.032 8.194 C 225.955 7.974,223.576 7.686,221.745 7.554 L 218.417 7.314 219.493 8.724 M205.093 11.701 C 200.052 14.532,199.626 14.774,191.577 19.380 C 186.259 22.423,183.580 24.001,179.236 26.651 C 177.943 27.439,176.004 28.571,174.927 29.167 C 164.827 34.749,121.285 63.050,103.624 75.510 C 100.176 77.943,97.025 80.151,96.621 80.417 C 95.798 80.959,87.780 86.768,87.169 87.264 C 86.954 87.439,84.662 89.119,82.076 90.998 C 77.507 94.319,69.456 100.411,66.365 102.888 C 65.525 103.561,62.458 106.016,59.549 108.343 C 56.641 110.670,52.663 113.910,50.711 115.543 C 48.758 117.175,46.431 119.100,45.539 119.820 C 44.646 120.540,43.511 121.485,43.016 121.921 C 42.521 122.356,41.322 123.354,40.353 124.138 C 39.383 124.922,38.501 125.661,38.394 125.780 C 38.071 126.137,29.006 133.640,26.053 135.994 C 22.868 138.533,17.852 142.026,15.181 143.566 C 12.722 144.984,12.582 144.590,18.475 152.831 C 25.837 163.127,30.682 170.623,35.158 178.648 C 38.960 185.465,40.120 187.584,41.915 190.989 C 43.051 193.144,44.375 195.612,44.858 196.474 C 45.340 197.336,46.528 199.540,47.497 201.371 C 48.466 203.203,49.700 205.495,50.239 206.464 C 50.778 207.434,51.972 209.632,52.892 211.349 C 53.813 213.067,54.888 215.045,55.282 215.745 C 55.675 216.445,56.647 218.214,57.443 219.675 C 58.238 221.136,59.627 223.653,60.528 225.269 C 61.429 226.885,63.016 229.794,64.054 231.734 C 65.092 233.673,67.501 238.058,69.406 241.479 C 71.311 244.900,72.870 247.768,72.870 247.853 C 72.870 247.938,73.280 248.665,73.782 249.469 C 74.283 250.273,75.545 252.517,76.586 254.456 C 78.502 258.026,79.770 260.382,82.069 264.643 C 82.766 265.935,84.357 268.932,85.603 271.303 C 86.849 273.673,88.347 276.494,88.932 277.571 C 89.517 278.648,90.837 281.117,91.865 283.056 C 92.893 284.995,94.216 287.463,94.803 288.541 C 95.391 289.618,96.713 292.086,97.742 294.025 C 98.770 295.965,100.092 298.433,100.680 299.510 C 101.268 300.588,103.118 304.114,104.793 307.346 C 106.468 310.578,107.969 313.399,108.130 313.614 C 108.290 313.830,109.391 315.857,110.577 318.119 C 111.762 320.382,113.078 322.850,113.501 323.604 C 116.024 328.105,118.462 332.635,122.041 339.471 C 123.282 341.841,124.833 344.750,125.487 345.935 C 127.198 349.035,136.381 367.317,137.392 369.638 C 139.716 374.974,140.156 376.071,140.797 378.136 L 141.489 380.367 143.969 378.849 C 147.767 376.524,149.251 375.826,157.493 372.484 C 173.039 366.182,179.144 363.875,190.402 360.051 C 193.462 359.012,198.132 357.330,199.216 356.876 C 206.390 353.876,225.226 347.928,241.920 343.393 C 242.997 343.100,244.672 342.598,245.642 342.278 C 246.611 341.958,249.785 340.965,252.693 340.070 C 255.602 339.176,258.423 338.289,258.962 338.100 C 259.903 337.769,267.145 335.557,272.870 333.852 C 274.378 333.402,276.317 332.865,277.179 332.656 C 278.041 332.448,279.716 331.996,280.901 331.652 C 282.086 331.308,283.761 330.868,284.623 330.673 C 287.856 329.944,294.158 328.364,297.943 327.334 C 300.098 326.747,302.742 326.036,303.820 325.753 C 304.897 325.470,307.233 324.783,309.011 324.226 C 320.711 320.558,325.417 319.142,329.873 317.950 C 331.058 317.633,332.997 317.096,334.182 316.756 C 335.367 316.417,337.042 315.984,337.904 315.793 C 341.487 315.002,349.415 312.832,355.926 310.860 C 367.240 307.434,373.187 305.752,376.885 304.931 C 378.286 304.620,380.049 304.217,380.803 304.035 C 381.557 303.853,382.747 303.576,383.448 303.419 C 385.062 303.058,385.143 303.360,382.243 298.960 C 380.880 296.892,379.223 294.143,378.559 292.850 C 377.895 291.557,376.986 289.794,376.539 288.932 C 375.618 287.158,372.576 280.542,372.576 280.313 C 372.576 280.231,371.871 278.645,371.009 276.787 C 370.147 274.930,369.442 273.278,369.442 273.116 C 369.442 272.954,369.112 272.127,368.708 271.278 C 368.305 270.430,364.056 260.304,359.266 248.776 C 354.476 237.248,350.332 227.287,350.056 226.641 C 349.781 225.994,348.458 222.556,347.117 219.001 C 345.776 215.446,344.459 212.008,344.190 211.361 C 343.922 210.715,343.479 209.569,343.206 208.815 C 342.933 208.061,342.492 206.915,342.226 206.268 C 341.961 205.622,341.520 204.476,341.247 203.722 C 340.974 202.968,340.533 201.822,340.267 201.175 C 340.002 200.529,339.561 199.383,339.288 198.629 C 339.015 197.875,338.548 196.702,338.250 196.023 C 337.952 195.344,337.708 194.592,337.708 194.353 C 337.708 194.113,337.550 193.611,337.357 193.237 C 336.509 191.596,331.495 177.977,329.030 170.617 C 328.380 168.678,327.696 166.738,327.509 166.308 C 327.322 165.877,325.300 159.882,323.015 152.987 C 320.730 146.092,318.703 140.098,318.510 139.667 C 318.317 139.236,316.097 132.625,313.575 124.976 C 311.054 117.326,308.855 110.715,308.688 110.284 C 308.521 109.853,308.087 108.443,307.722 107.150 C 307.357 105.857,306.825 104.094,306.539 103.232 C 306.253 102.370,305.382 99.549,304.603 96.964 C 303.824 94.378,303.036 91.822,302.852 91.283 C 302.668 90.744,301.952 88.452,301.261 86.190 C 300.571 83.928,299.435 80.313,298.737 78.159 C 298.039 76.004,297.159 73.183,296.782 71.890 C 296.404 70.597,295.836 68.746,295.520 67.777 C 295.204 66.807,294.707 65.132,294.416 64.055 C 294.124 62.977,293.420 60.597,292.850 58.766 C 291.905 55.726,291.140 53.087,290.294 49.951 C 290.120 49.305,289.243 46.219,288.345 43.095 C 287.447 39.971,286.576 36.871,286.409 36.206 C 285.717 33.446,285.867 33.407,279.372 38.051 C 276.056 40.422,272.429 43.100,271.314 44.002 C 270.198 44.904,268.699 46.082,267.982 46.621 C 261.840 51.239,258.427 54.138,253.959 58.532 C 242.162 70.133,243.147 70.797,228.181 41.136 C 225.191 35.211,221.726 28.534,220.481 26.299 C 219.236 24.063,218.217 22.165,218.217 22.079 C 218.217 21.994,217.804 21.266,217.300 20.462 C 216.795 19.659,215.797 17.943,215.081 16.650 C 210.084 7.623,211.290 8.220,205.093 11.701 M215.401 73.277 C 216.389 74.197,216.503 75.480,215.699 76.628 C 215.169 77.385,214.115 77.921,210.284 79.381 C 207.848 80.309,205.284 81.364,202.781 82.468 C 202.048 82.791,201.344 83.056,201.216 83.056 C 201.088 83.056,199.647 83.673,198.014 84.427 C 196.381 85.181,194.829 85.798,194.565 85.798 C 194.301 85.798,193.917 85.946,193.712 86.126 C 193.507 86.306,192.370 86.857,191.185 87.350 C 188.684 88.390,186.584 89.324,182.762 91.097 C 180.148 92.310,178.121 93.231,173.751 95.192 C 165.338 98.967,146.103 108.889,136.379 114.469 C 134.570 115.507,133.031 116.357,132.958 116.357 C 132.885 116.357,131.673 117.062,130.264 117.924 C 128.856 118.786,127.617 119.491,127.511 119.491 C 127.405 119.491,125.911 120.372,124.192 121.450 C 122.473 122.527,120.969 123.408,120.850 123.408 C 120.732 123.408,120.157 123.735,119.573 124.135 C 118.989 124.535,115.690 126.603,112.243 128.732 C 108.795 130.861,105.798 132.749,105.583 132.927 C 104.627 133.720,97.396 138.296,97.098 138.296 C 96.917 138.296,96.768 138.434,96.768 138.603 C 96.768 138.772,96.195 139.248,95.495 139.661 C 94.794 140.074,94.045 140.554,93.830 140.728 C 93.614 140.901,90.176 143.369,86.190 146.211 C 82.204 149.054,78.600 151.697,78.183 152.085 C 77.765 152.474,77.293 152.791,77.133 152.791 C 76.974 152.791,76.610 153.013,76.326 153.283 C 76.041 153.554,74.686 154.656,73.316 155.732 C 71.945 156.808,70.078 158.306,69.167 159.060 C 68.256 159.814,66.835 160.960,66.008 161.606 C 65.181 162.253,64.315 162.959,64.083 163.175 C 63.852 163.392,62.693 164.360,61.508 165.326 C 60.323 166.293,58.737 167.657,57.982 168.357 C 57.228 169.058,56.492 169.632,56.345 169.634 C 56.199 169.636,55.847 169.869,55.562 170.153 C 54.048 171.659,51.714 171.587,51.714 170.033 C 51.714 169.450,55.571 165.531,59.785 161.832 C 60.625 161.095,62.207 159.684,63.299 158.698 C 67.139 155.233,68.008 154.492,72.086 151.199 C 82.361 142.905,100.674 129.677,101.883 129.677 C 102.050 129.677,102.246 129.537,102.318 129.365 C 102.424 129.112,107.557 125.692,110.395 123.983 C 110.765 123.760,112.304 122.791,113.814 121.828 C 115.325 120.866,116.912 119.872,117.340 119.620 C 117.769 119.369,119.706 118.199,121.645 117.020 C 123.585 115.842,126.053 114.390,127.130 113.794 C 128.208 113.198,129.703 112.296,130.453 111.791 C 131.204 111.285,132.041 110.872,132.314 110.872 C 132.587 110.872,132.811 110.695,132.811 110.480 C 132.811 110.264,132.965 110.088,133.153 110.088 C 133.342 110.088,135.479 108.942,137.904 107.542 C 140.329 106.141,142.363 104.995,142.424 104.995 C 142.485 104.995,143.741 104.313,145.215 103.480 C 152.962 99.098,170.495 90.290,180.411 85.798 C 181.489 85.310,183.466 84.410,184.806 83.798 C 186.146 83.186,188.349 82.222,189.703 81.657 C 191.057 81.092,193.279 80.118,194.640 79.492 C 196.002 78.866,197.283 78.355,197.486 78.355 C 197.689 78.355,198.162 78.187,198.536 77.982 C 198.910 77.777,199.922 77.318,200.784 76.962 C 201.645 76.607,202.703 76.153,203.134 75.954 C 208.966 73.263,214.168 72.128,215.401 73.277 M169.183 121.800 C 169.278 122.473,168.946 123.057,168.007 123.869 C 166.603 125.084,147.445 134.709,138.492 138.699 C 129.477 142.715,121.642 146.501,114.594 150.247 C 112.223 151.506,109.889 152.726,109.406 152.958 C 108.922 153.189,108.526 153.511,108.524 153.673 C 108.522 153.834,108.341 153.967,108.122 153.967 C 107.609 153.967,96.223 161.052,96.050 161.480 C 95.978 161.657,95.737 161.802,95.514 161.802 C 95.291 161.802,94.506 162.331,93.770 162.977 C 93.033 163.624,92.282 164.153,92.099 164.153 C 91.916 164.153,91.670 164.519,91.553 164.967 C 91.218 166.249,89.556 165.834,89.394 164.428 C 89.221 162.916,92.373 159.864,98.000 156.093 C 99.585 155.031,100.970 154.057,101.077 153.928 C 101.185 153.798,101.450 153.622,101.665 153.535 C 101.881 153.449,103.379 152.503,104.995 151.434 C 108.449 149.148,115.178 145.238,118.511 143.579 C 119.804 142.936,120.950 142.318,121.058 142.205 C 121.166 142.093,122.576 141.362,124.192 140.581 C 128.569 138.464,137.208 134.321,141.430 132.314 C 143.477 131.341,147.532 129.404,150.441 128.010 C 156.695 125.013,161.691 122.683,162.782 122.254 C 163.213 122.085,164.006 121.759,164.545 121.531 C 166.268 120.799,166.676 120.708,167.875 120.786 C 168.789 120.845,169.079 121.070,169.183 121.800 M184.836 160.066 C 186.281 160.404,187.769 160.844,188.144 161.045 C 188.518 161.246,188.998 161.410,189.210 161.410 C 189.840 161.410,193.939 163.416,196.579 165.015 C 197.929 165.834,199.208 166.503,199.419 166.503 C 199.631 166.503,199.804 166.680,199.804 166.895 C 199.804 167.111,199.968 167.287,200.168 167.287 C 201.312 167.287,208.193 172.488,211.669 175.980 C 214.377 178.700,214.278 178.687,216.514 176.592 C 225.054 168.585,233.085 165.238,243.879 165.186 C 258.408 165.117,266.746 169.618,271.597 180.148 C 272.259 181.586,272.832 182.807,272.870 182.862 C 272.951 182.979,275.270 182.259,276.396 181.767 C 280.765 179.859,287.258 179.963,296.768 182.095 C 309.828 185.022,316.943 193.183,318.527 207.052 C 319.408 214.767,319.418 215.293,318.735 217.351 C 317.571 220.855,315.646 222.539,311.263 223.891 C 308.686 224.685,307.787 225.143,304.053 227.562 C 302.673 228.456,301.262 229.186,300.919 229.184 C 300.575 229.183,298.707 229.867,296.768 230.704 C 294.829 231.542,291.832 232.713,290.108 233.308 C 287.179 234.318,281.839 236.233,280.509 236.750 C 279.884 236.993,275.245 238.598,266.014 241.766 C 262.889 242.838,256.543 244.960,251.910 246.481 C 247.277 248.001,243.134 249.391,242.703 249.568 C 242.272 249.745,240.157 250.452,238.002 251.138 C 234.784 252.164,218.535 258.141,215.671 259.353 C 215.240 259.535,214.006 259.981,212.929 260.344 C 211.851 260.707,210.617 261.151,210.186 261.330 C 209.755 261.510,206.670 262.565,203.330 263.675 C 199.990 264.786,196.729 265.922,196.082 266.200 C 194.227 266.999,191.253 268.353,187.855 269.945 C 186.131 270.753,182.253 272.415,179.236 273.637 C 172.196 276.491,172.315 276.437,163.724 280.716 C 159.718 282.712,155.134 284.911,153.538 285.604 C 151.942 286.296,147.728 288.271,144.172 289.993 C 136.034 293.934,134.316 294.613,132.483 294.613 C 131.672 294.613,130.788 294.833,130.519 295.103 C 128.440 297.182,120.164 294.977,117.052 291.516 C 105.762 278.959,108.656 256.189,122.821 246.116 C 123.037 245.963,123.830 245.379,124.584 244.818 C 125.338 244.257,127.189 243.129,128.697 242.311 C 130.206 241.493,131.500 240.775,131.573 240.716 C 131.647 240.656,131.254 239.316,130.701 237.738 C 125.964 224.225,125.242 207.864,128.942 197.845 C 130.516 193.582,135.027 185.173,136.298 184.133 C 136.430 184.025,137.324 182.880,138.286 181.587 C 150.162 165.624,169.792 156.548,184.836 160.066 M330.462 265.231 C 331.739 265.716,331.681 267.193,330.362 267.772 C 329.878 267.984,329.481 268.293,329.481 268.457 C 329.481 268.622,329.237 268.756,328.938 268.756 C 328.639 268.756,327.890 269.019,327.273 269.341 C 326.656 269.663,325.789 269.928,325.348 269.929 C 324.906 269.930,324.377 270.078,324.172 270.257 C 323.968 270.436,322.654 270.896,321.254 271.280 C 319.853 271.663,318.355 272.110,317.924 272.272 C 317.493 272.434,316.170 272.870,314.985 273.241 C 313.800 273.612,312.478 274.057,312.047 274.229 C 311.616 274.401,310.206 274.851,308.913 275.230 C 307.620 275.608,306.210 276.060,305.779 276.233 C 305.348 276.406,302.615 277.347,299.706 278.323 C 296.797 279.300,291.068 281.262,286.974 282.684 C 282.880 284.106,279.089 285.413,278.550 285.588 C 276.738 286.178,272.880 287.626,271.635 288.183 C 270.956 288.488,270.205 288.737,269.965 288.737 C 269.725 288.737,269.223 288.903,268.849 289.106 C 268.475 289.309,266.141 290.204,263.663 291.094 C 261.185 291.985,258.805 292.855,258.374 293.029 C 257.590 293.344,254.754 294.445,253.281 295.005 C 249.006 296.631,245.937 297.873,243.232 299.072 C 242.445 299.421,241.694 299.706,241.562 299.706 C 241.431 299.706,240.576 300.044,239.663 300.457 C 238.749 300.870,235.534 302.206,232.517 303.425 C 229.500 304.645,226.327 305.972,225.465 306.373 C 222.888 307.574,219.380 309.109,219.214 309.109 C 219.128 309.109,217.767 309.703,216.189 310.430 C 210.561 313.021,209.636 313.418,209.228 313.418 C 209.001 313.418,208.815 313.595,208.815 313.810 C 208.815 314.025,208.605 314.202,208.348 314.202 C 207.685 314.202,193.730 321.030,183.242 326.486 C 177.572 329.436,175.514 329.861,175.514 328.082 C 175.514 326.977,175.939 326.476,177.687 325.514 C 178.323 325.164,180.352 323.999,182.195 322.925 C 184.038 321.851,186.594 320.389,187.875 319.678 C 189.157 318.966,190.823 318.031,191.577 317.600 C 193.875 316.287,213.113 306.630,216.454 305.112 C 218.178 304.329,221.087 303.043,222.919 302.255 C 226.643 300.651,227.625 300.217,230.827 298.761 C 232.052 298.203,233.149 297.747,233.264 297.747 C 233.379 297.747,234.437 297.307,235.615 296.768 C 236.792 296.229,237.851 295.788,237.967 295.788 C 238.083 295.788,239.333 295.260,240.744 294.613 C 242.156 293.967,243.412 293.438,243.535 293.438 C 243.659 293.438,244.316 293.180,244.995 292.865 C 245.674 292.549,248.786 291.312,251.910 290.115 C 255.034 288.918,257.943 287.783,258.374 287.593 C 258.805 287.404,259.775 287.028,260.529 286.758 C 261.283 286.489,262.429 286.047,263.075 285.775 C 263.722 285.504,266.278 284.548,268.756 283.650 C 271.234 282.752,273.614 281.868,274.045 281.686 C 274.476 281.503,275.710 281.057,276.787 280.694 C 277.865 280.331,279.099 279.874,279.530 279.678 C 279.961 279.482,280.842 279.165,281.489 278.972 C 282.135 278.779,283.898 278.158,285.406 277.591 C 286.915 277.024,289.736 276.030,291.675 275.384 C 293.614 274.737,295.471 274.061,295.801 273.882 C 296.132 273.703,297.013 273.426,297.760 273.266 C 298.507 273.106,299.295 272.848,299.510 272.694 C 299.726 272.539,301.224 272.008,302.840 271.514 C 304.456 271.020,307.277 270.133,309.109 269.542 C 310.940 268.952,313.497 268.175,314.789 267.816 C 316.082 267.457,317.669 267.007,318.315 266.815 C 323.774 265.197,328.687 264.556,330.462 265.231 " stroke="none" fill="#fbfbfb" fill-rule="evenodd"></path><path id="path2" d="M283.252 26.256 C 282.348 26.551,282.371 26.572,283.546 26.525 C 284.246 26.497,284.819 26.335,284.819 26.165 C 284.819 25.806,284.584 25.820,283.252 26.256 M253.654 58.080 L 252.106 59.745 253.771 58.197 C 255.319 56.756,255.616 56.415,255.319 56.415 C 255.255 56.415,254.506 57.165,253.654 58.080 M249.339 62.390 L 248.188 63.663 249.461 62.512 C 250.162 61.880,250.735 61.307,250.735 61.239 C 250.735 60.936,250.411 61.203,249.339 62.390 M177.771 159.729 C 178.259 159.822,178.964 159.819,179.339 159.721 C 179.713 159.623,179.314 159.546,178.452 159.550 C 177.591 159.555,177.284 159.635,177.771 159.729 M264.838 171.327 C 264.838 171.395,265.411 171.968,266.112 172.601 L 267.385 173.751 266.234 172.478 C 265.162 171.291,264.838 171.025,264.838 171.327 M213.023 177.863 C 214.266 179.186,214.308 179.199,214.982 178.463 C 215.640 177.745,215.640 177.735,214.971 178.240 C 214.360 178.701,214.112 178.625,213.012 177.640 L 211.753 176.512 213.023 177.863 " stroke="none" fill="#7c7c7c" fill-rule="evenodd"></path><path id="path3" d="M219.694 7.336 C 220.398 7.423,221.456 7.421,222.044 7.332 C 222.633 7.242,222.057 7.171,220.764 7.173 C 219.471 7.176,218.989 7.249,219.694 7.336 M226.836 8.227 C 227.375 8.400,228.257 8.538,228.795 8.534 C 229.675 8.527,229.655 8.496,228.599 8.227 C 226.942 7.806,225.520 7.806,226.836 8.227 M210.443 9.109 C 210.774 9.378,211.439 10.260,211.921 11.068 C 213.206 13.225,213.302 12.859,212.047 10.584 C 211.454 9.509,210.716 8.628,210.405 8.625 C 209.934 8.620,209.940 8.700,210.443 9.109 M234.970 9.288 C 235.458 9.382,236.163 9.378,236.537 9.280 C 236.912 9.182,236.513 9.105,235.651 9.110 C 234.789 9.114,234.483 9.194,234.970 9.288 M207.542 10.018 C 206.077 10.813,206.166 11.144,207.640 10.382 C 208.286 10.048,208.815 9.691,208.815 9.588 C 208.815 9.336,208.773 9.350,207.542 10.018 M222.302 13.614 C 223.103 15.104,224.480 17.099,224.483 16.774 C 224.486 16.446,222.076 12.537,221.871 12.537 C 221.790 12.537,221.984 13.022,222.302 13.614 M195.393 16.805 C 193.007 18.205,192.477 18.750,194.515 17.709 C 196.028 16.935,197.855 15.688,197.453 15.703 C 197.346 15.707,196.418 16.203,195.393 16.805 M215.083 16.628 C 215.083 16.918,216.716 19.589,216.893 19.589 C 216.984 19.589,216.698 18.883,216.259 18.022 C 215.557 16.646,215.083 16.085,215.083 16.628 M189.125 20.338 C 187.350 21.477,187.352 21.700,189.128 20.804 C 190.044 20.342,190.793 19.880,190.793 19.777 C 190.793 19.441,190.228 19.632,189.125 20.338 M227.228 21.939 C 227.668 22.801,228.116 23.506,228.224 23.506 C 228.331 23.506,228.060 22.801,227.620 21.939 C 227.180 21.077,226.732 20.372,226.625 20.372 C 226.517 20.372,226.788 21.077,227.228 21.939 M183.248 23.857 C 180.862 25.257,180.332 25.802,182.370 24.761 C 183.883 23.987,185.710 22.740,185.309 22.755 C 185.201 22.759,184.273 23.255,183.248 23.857 M219.785 25.073 C 220.224 25.935,220.672 26.641,220.780 26.641 C 220.888 26.641,220.616 25.935,220.176 25.073 C 219.737 24.212,219.289 23.506,219.181 23.506 C 219.073 23.506,219.345 24.212,219.785 25.073 M229.579 26.249 C 230.231 27.542,230.854 28.599,230.961 28.599 C 231.069 28.599,230.623 27.542,229.971 26.249 C 229.318 24.956,228.696 23.898,228.588 23.898 C 228.480 23.898,228.926 24.956,229.579 26.249 M179.138 26.294 C 177.803 27.149,177.371 27.723,178.550 27.075 C 179.449 26.581,180.858 25.492,180.607 25.484 C 180.500 25.481,179.838 25.845,179.138 26.294 M280.020 26.865 C 279.427 27.186,278.942 27.538,278.942 27.646 C 278.942 27.755,279.329 27.637,279.801 27.384 C 280.273 27.131,281.110 26.788,281.662 26.620 C 282.446 26.382,282.493 26.312,281.881 26.298 C 281.450 26.288,280.612 26.543,280.020 26.865 M175.771 28.253 C 174.943 28.690,174.348 29.130,174.448 29.231 C 174.635 29.418,177.473 27.869,177.473 27.581 C 177.473 27.359,177.444 27.371,175.771 28.253 M274.437 30.788 L 273.262 31.798 274.535 30.956 C 275.235 30.492,275.808 30.037,275.808 29.944 C 275.808 29.651,275.642 29.753,274.437 30.788 M271.618 32.749 L 270.519 33.764 271.792 32.918 C 272.959 32.143,273.339 31.734,272.892 31.734 C 272.796 31.734,272.223 32.191,271.618 32.749 M284.231 34.314 L 283.056 35.324 284.301 34.502 L 285.545 33.680 285.806 34.499 C 286.146 35.571,286.422 35.286,286.129 34.165 C 285.842 33.068,285.665 33.082,284.231 34.314 M234.359 35.447 C 234.828 36.412,235.279 37.134,235.361 37.052 C 235.538 36.875,233.955 33.692,233.690 33.692 C 233.589 33.692,233.890 34.482,234.359 35.447 M266.405 36.665 C 264.358 38.285,262.419 39.892,262.096 40.235 C 261.427 40.944,267.063 36.678,269.148 34.896 C 271.744 32.678,270.121 33.725,266.405 36.665 M164.251 35.305 C 162.915 36.160,162.483 36.734,163.663 36.086 C 164.562 35.591,165.970 34.503,165.720 34.495 C 165.612 34.492,164.951 34.856,164.251 35.305 M281.489 36.273 L 280.313 37.283 281.587 36.441 C 282.287 35.977,282.860 35.522,282.860 35.429 C 282.860 35.135,282.694 35.238,281.489 36.273 M158.857 38.645 C 156.858 39.970,156.153 40.669,157.714 39.779 C 159.089 38.995,160.922 37.632,160.620 37.619 C 160.508 37.614,159.715 38.076,158.857 38.645 M236.239 39.177 C 236.679 40.039,237.127 40.744,237.234 40.744 C 237.342 40.744,237.070 40.039,236.631 39.177 C 236.191 38.315,235.743 37.610,235.635 37.610 C 235.528 37.610,235.799 38.315,236.239 39.177 M277.179 39.209 C 274.855 40.966,274.542 41.462,276.722 39.934 C 278.368 38.779,279.264 37.977,278.867 38.013 C 278.801 38.019,278.041 38.557,277.179 39.209 M258.864 42.542 C 257.625 43.527,256.611 44.419,256.611 44.524 C 256.611 44.629,257.669 43.883,258.962 42.867 C 261.034 41.240,261.568 40.737,261.214 40.747 C 261.161 40.749,260.103 41.557,258.864 42.542 M270.911 43.924 C 268.515 45.862,267.758 46.641,269.344 45.538 C 270.782 44.536,273.335 42.344,273.066 42.341 C 272.958 42.340,271.988 43.053,270.911 43.924 M148.580 45.099 C 147.244 45.954,146.812 46.528,147.992 45.880 C 148.891 45.386,150.299 44.297,150.049 44.289 C 149.941 44.286,149.280 44.650,148.580 45.099 M250.390 49.974 L 244.902 55.286 244.282 54.088 C 243.423 52.426,243.155 52.577,243.961 54.268 C 244.322 55.026,244.738 55.599,244.883 55.541 C 245.295 55.378,256.337 44.662,256.094 44.662 C 255.976 44.662,253.409 47.052,250.390 49.974 M145.427 47.181 C 143.608 48.468,143.351 48.835,144.888 47.955 C 145.605 47.545,146.376 46.988,146.601 46.719 C 147.180 46.027,146.908 46.134,145.427 47.181 M231.617 47.984 C 232.085 48.948,232.536 49.671,232.618 49.589 C 232.796 49.411,231.213 46.229,230.947 46.229 C 230.847 46.229,231.148 47.019,231.617 47.984 M265.998 47.841 L 264.251 49.419 266.014 48.122 C 266.983 47.409,267.850 46.779,267.940 46.723 C 268.030 46.667,268.023 46.540,267.924 46.442 C 267.825 46.343,266.959 46.973,265.998 47.841 M140.744 50.192 C 139.409 51.047,138.977 51.621,140.157 50.973 C 141.056 50.479,142.464 49.390,142.214 49.382 C 142.106 49.379,141.445 49.744,140.744 50.192 M261.606 51.161 C 260.367 52.146,259.354 53.038,259.354 53.143 C 259.354 53.248,260.411 52.502,261.704 51.486 C 263.776 49.859,264.310 49.356,263.957 49.366 C 263.903 49.368,262.845 50.176,261.606 51.161 M290.359 50.147 C 290.359 50.470,290.510 51.087,290.695 51.518 C 290.908 52.012,291.032 52.084,291.032 51.714 C 291.032 51.391,290.881 50.774,290.695 50.343 C 290.483 49.849,290.359 49.777,290.359 50.147 M233.497 51.714 C 233.936 52.576,234.384 53.281,234.492 53.281 C 234.600 53.281,234.328 52.576,233.888 51.714 C 233.449 50.852,233.001 50.147,232.893 50.147 C 232.785 50.147,233.057 50.852,233.497 51.714 M136.239 53.114 C 135.431 53.643,134.770 54.172,134.770 54.288 C 134.770 54.585,137.092 53.191,137.590 52.595 C 138.157 51.918,137.934 52.004,136.239 53.114 M291.485 54.293 C 291.488 54.706,291.670 55.309,291.889 55.632 C 292.179 56.061,292.215 55.902,292.023 55.044 C 291.701 53.604,291.477 53.291,291.485 54.293 M253.471 58.589 C 247.674 64.419,246.028 65.553,243.728 65.304 C 242.659 65.189,242.215 65.248,242.552 65.462 C 243.618 66.137,245.515 65.813,247.239 64.661 C 248.789 63.627,258.649 54.065,258.166 54.065 C 258.058 54.065,255.945 56.101,253.471 58.589 M130.358 57.011 C 128.906 57.985,127.718 58.868,127.718 58.973 C 127.718 59.078,128.952 58.343,130.460 57.340 C 132.860 55.745,133.494 55.240,133.101 55.240 C 133.044 55.240,131.810 56.037,130.358 57.011 M125.857 59.986 C 124.522 60.841,124.089 61.416,125.269 60.767 C 126.168 60.273,127.576 59.184,127.326 59.177 C 127.218 59.174,126.557 59.538,125.857 59.986 M120.913 63.264 C 118.065 65.203,116.013 66.851,117.545 65.968 C 118.899 65.189,124.192 61.471,124.192 61.300 C 124.192 61.027,124.233 61.002,120.913 63.264 M113.459 68.355 C 111.139 70.004,110.655 70.488,112.243 69.569 C 113.522 68.829,115.890 66.998,115.572 66.995 C 115.463 66.994,114.512 67.606,113.459 68.355 M212.069 72.788 C 211.811 72.951,212.367 73.081,213.303 73.075 C 214.239 73.070,214.924 72.933,214.825 72.772 C 214.592 72.391,212.675 72.402,212.069 72.788 M100.842 77.029 C 97.797 79.195,96.339 80.383,97.551 79.711 C 98.625 79.116,104.212 75.158,104.212 74.992 C 104.212 74.667,103.889 74.863,100.842 77.029 M203.820 75.624 C 202.508 76.152,202.753 76.419,204.114 75.945 C 204.760 75.720,205.289 75.465,205.289 75.378 C 205.289 75.146,204.812 75.225,203.820 75.624 M189.618 81.685 C 189.079 81.993,188.815 82.245,189.030 82.245 C 189.246 82.245,189.863 81.993,190.402 81.685 C 190.940 81.377,191.205 81.125,190.989 81.125 C 190.774 81.125,190.157 81.377,189.618 81.685 M90.891 84.090 C 87.985 86.215,86.551 87.436,87.757 86.758 C 88.770 86.189,94.025 82.250,94.025 82.061 C 94.025 81.794,94.064 81.769,90.891 84.090 M85.015 88.416 C 82.393 90.432,82.160 90.852,84.623 89.123 C 85.808 88.291,86.851 87.555,86.941 87.488 C 87.031 87.420,87.031 87.297,86.941 87.213 C 86.851 87.129,85.984 87.671,85.015 88.416 M179.432 92.262 C 178.893 92.570,178.629 92.822,178.844 92.822 C 179.060 92.822,179.677 92.570,180.215 92.262 C 180.754 91.955,181.019 91.703,180.803 91.703 C 180.588 91.703,179.971 91.955,179.432 92.262 M76.004 95.050 C 73.833 96.745,72.638 97.970,74.241 96.857 C 75.655 95.876,78.238 93.664,77.963 93.670 C 77.855 93.672,76.974 94.293,76.004 95.050 M69.540 100.141 L 67.973 101.543 69.638 100.298 C 71.071 99.226,71.588 98.710,71.205 98.733 C 71.151 98.736,70.402 99.370,69.540 100.141 M147.992 101.888 C 147.184 102.314,146.523 102.751,146.523 102.858 C 146.523 102.965,147.228 102.692,148.090 102.253 C 148.952 101.813,149.657 101.369,149.657 101.265 C 149.657 101.009,149.654 101.010,147.992 101.888 M65.077 103.472 C 64.561 103.889,64.209 104.300,64.293 104.384 C 64.378 104.467,64.868 104.194,65.384 103.776 C 65.899 103.358,66.252 102.948,66.167 102.864 C 66.083 102.780,65.592 103.054,65.077 103.472 M59.941 107.583 C 57.256 109.810,56.070 111.033,58.178 109.401 C 60.335 107.730,62.528 105.812,62.292 105.803 C 62.184 105.799,61.126 106.600,59.941 107.583 M309.156 111.655 C 309.150 111.978,309.386 112.772,309.682 113.418 C 310.375 114.931,310.385 114.228,309.696 112.439 C 309.406 111.685,309.163 111.332,309.156 111.655 M50.343 115.415 C 47.066 118.139,44.367 120.647,46.425 119.054 C 48.352 117.563,54.065 112.731,54.065 112.592 C 54.065 112.328,53.952 112.413,50.343 115.415 M312.076 120.666 C 312.220 121.205,312.501 121.910,312.701 122.233 C 312.953 122.642,312.984 122.522,312.802 121.841 C 312.658 121.303,312.377 120.597,312.177 120.274 C 311.924 119.866,311.894 119.985,312.076 120.666 M40.731 123.521 C 38.798 125.317,39.276 125.092,41.639 123.095 C 42.455 122.405,42.984 121.848,42.815 121.856 C 42.646 121.865,41.708 122.614,40.731 123.521 M118.998 124.158 C 117.388 125.190,117.165 125.554,118.584 124.832 C 119.271 124.483,119.943 124.020,120.077 123.803 C 120.391 123.295,120.297 123.326,118.998 124.158 M32.517 130.306 C 28.178 133.949,25.461 136.403,27.620 134.729 C 29.764 133.067,37.610 126.459,37.610 126.315 C 37.610 126.034,37.535 126.092,32.517 130.306 M109.403 130.114 C 108.067 130.969,107.635 131.543,108.815 130.895 C 109.714 130.401,111.122 129.312,110.872 129.304 C 110.764 129.301,110.103 129.665,109.403 130.114 M96.469 133.017 C 95.340 133.777,94.417 134.484,94.417 134.588 C 94.417 134.693,95.387 134.134,96.572 133.347 C 98.455 132.097,99.008 131.636,98.624 131.636 C 98.567 131.636,97.597 132.257,96.469 133.017 M24.486 136.774 C 21.767 138.974,21.396 139.448,23.603 137.901 C 25.262 136.738,27.023 135.139,26.603 135.176 C 26.516 135.183,25.563 135.903,24.486 136.774 M17.336 141.867 C 16.001 142.722,15.568 143.296,16.748 142.648 C 17.647 142.154,19.055 141.065,18.805 141.057 C 18.697 141.054,18.036 141.418,17.336 141.867 M81.293 144.019 L 79.726 145.422 81.391 144.177 C 82.824 143.105,83.341 142.588,82.958 142.611 C 82.904 142.614,82.155 143.248,81.293 144.019 M87.169 145.186 L 85.994 146.196 87.267 145.353 C 87.968 144.890,88.541 144.435,88.541 144.342 C 88.541 144.048,88.375 144.151,87.169 145.186 M76.200 147.933 C 74.998 149.005,74.915 149.145,75.843 148.533 C 76.936 147.812,78.277 146.514,77.913 146.529 C 77.833 146.532,77.062 147.164,76.200 147.933 M321.086 147.307 C 321.231 147.845,321.512 148.550,321.712 148.874 C 321.964 149.282,321.995 149.163,321.813 148.482 C 321.669 147.943,321.387 147.238,321.188 146.915 C 320.935 146.506,320.904 146.626,321.086 147.307 M15.279 148.874 C 15.739 149.520,16.204 150.049,16.312 150.049 C 16.420 150.049,16.131 149.520,15.671 148.874 C 15.211 148.227,14.746 147.698,14.638 147.698 C 14.530 147.698,14.819 148.227,15.279 148.874 M17.238 151.616 C 17.698 152.262,18.163 152.791,18.271 152.791 C 18.379 152.791,18.090 152.262,17.630 151.616 C 17.169 150.970,16.705 150.441,16.597 150.441 C 16.489 150.441,16.778 150.970,17.238 151.616 M323.045 153.183 C 323.189 153.722,323.471 154.427,323.670 154.750 C 323.923 155.159,323.954 155.039,323.772 154.358 C 323.627 153.820,323.346 153.115,323.146 152.791 C 322.894 152.383,322.863 152.502,323.045 153.183 M64.643 157.531 L 62.488 159.521 64.740 157.675 C 66.718 156.056,67.256 155.522,66.895 155.538 C 66.841 155.540,65.828 156.438,64.643 157.531 M21.798 157.982 C 23.006 159.976,26.010 163.968,25.262 162.586 C 24.710 161.564,21.833 157.493,21.664 157.493 C 21.574 157.493,21.635 157.713,21.798 157.982 M97.649 159.888 C 96.314 160.744,95.882 161.318,97.062 160.669 C 97.961 160.175,99.369 159.086,99.119 159.079 C 99.011 159.076,98.350 159.440,97.649 159.888 M172.184 159.849 C 171.496 160.028,172.226 160.067,173.947 159.944 C 175.563 159.829,176.959 159.671,177.049 159.593 C 177.350 159.332,173.372 159.541,172.184 159.849 M179.856 159.593 C 179.946 159.671,181.077 159.833,182.370 159.953 C 183.830 160.089,184.350 160.050,183.741 159.851 C 182.774 159.534,179.540 159.319,179.856 159.593 M90.540 162.012 C 89.871 162.773,89.324 163.514,89.324 163.657 C 89.324 163.800,89.458 163.750,89.621 163.546 C 89.784 163.341,90.434 162.600,91.066 161.900 C 91.697 161.200,92.110 160.627,91.985 160.627 C 91.859 160.627,91.209 161.250,90.540 162.012 M58.858 162.597 C 58.154 163.237,57.724 163.761,57.903 163.761 C 58.081 163.761,58.734 163.232,59.354 162.586 C 60.793 161.083,60.515 161.089,58.858 162.597 M93.046 163.222 C 92.342 163.822,92.198 164.060,92.686 163.817 C 93.405 163.461,94.752 162.171,94.367 162.208 C 94.287 162.216,93.692 162.672,93.046 163.222 M26.873 165.426 C 27.668 166.665,28.392 167.679,28.481 167.679 C 28.744 167.679,27.326 165.408,26.337 164.245 C 25.836 163.655,26.077 164.187,26.873 165.426 M62.262 164.447 L 61.312 165.524 62.488 164.545 C 63.134 164.006,63.737 163.521,63.826 163.467 C 63.916 163.413,63.815 163.369,63.601 163.369 C 63.387 163.369,62.785 163.854,62.262 164.447 M89.581 165.426 C 89.680 165.588,90.094 165.720,90.500 165.720 C 90.905 165.720,91.319 165.588,91.418 165.426 C 91.518 165.264,91.105 165.132,90.500 165.132 C 89.894 165.132,89.481 165.264,89.581 165.426 M242.812 165.224 C 243.733 165.306,245.143 165.305,245.946 165.221 C 246.748 165.137,245.994 165.069,244.270 165.071 C 242.547 165.072,241.890 165.141,242.812 165.224 M236.239 165.720 C 234.922 166.142,236.345 166.142,238.002 165.720 C 239.058 165.451,239.078 165.420,238.198 165.414 C 237.659 165.409,236.778 165.547,236.239 165.720 M53.281 167.875 C 52.329 168.844,51.639 169.638,51.747 169.638 C 51.854 169.638,52.721 168.844,53.673 167.875 C 54.624 166.905,55.315 166.112,55.207 166.112 C 55.099 166.112,54.233 166.905,53.281 167.875 M151.736 168.295 L 150.637 169.303 151.910 168.417 C 152.610 167.930,153.183 167.476,153.183 167.409 C 153.183 167.100,152.750 167.365,151.736 168.295 M229.677 167.691 C 228.365 168.218,228.610 168.486,229.971 168.012 C 230.617 167.786,231.146 167.531,231.146 167.445 C 231.146 167.212,230.669 167.292,229.677 167.691 M29.076 168.952 C 29.388 169.437,30.398 171.112,31.321 172.674 C 32.243 174.236,33.077 175.514,33.173 175.514 C 33.389 175.514,33.453 175.632,30.985 171.499 C 29.860 169.613,28.842 168.071,28.724 168.071 C 28.606 168.071,28.764 168.467,29.076 168.952 M202.351 168.729 C 202.566 168.937,203.712 169.763,204.897 170.564 C 206.455 171.617,206.707 171.718,205.808 170.927 C 204.648 169.906,201.491 167.899,202.351 168.729 M226.347 169.273 C 225.539 169.699,224.878 170.136,224.878 170.243 C 224.878 170.417,227.972 168.971,228.371 168.610 C 228.822 168.202,227.645 168.587,226.347 169.273 M262.488 169.354 C 262.488 169.429,263.061 169.910,263.761 170.422 C 264.549 170.999,264.823 171.094,264.479 170.671 C 263.957 170.028,262.488 169.057,262.488 169.354 M144.351 174.829 C 141.112 178.156,137.428 182.240,139.315 180.411 C 141.197 178.587,148.197 171.205,148.045 171.205 C 147.954 171.205,146.291 172.835,144.351 174.829 M208.117 172.981 C 208.703 173.597,209.253 174.023,209.339 173.926 C 209.425 173.830,208.945 173.326,208.274 172.805 L 207.052 171.860 208.117 172.981 M218.217 175.161 L 216.063 177.150 218.315 175.305 C 220.292 173.686,220.831 173.152,220.470 173.168 C 220.416 173.170,219.403 174.067,218.217 175.161 M211.166 175.710 C 211.896 176.464,212.583 177.081,212.690 177.081 C 212.798 177.081,212.288 176.464,211.557 175.710 C 210.826 174.956,210.140 174.339,210.032 174.339 C 209.925 174.339,210.435 174.956,211.166 175.710 M269.969 177.645 C 270.422 178.413,270.868 179.040,270.960 179.040 C 271.238 179.040,269.966 176.757,269.542 176.495 C 269.324 176.361,269.517 176.878,269.969 177.645 M281.905 180.556 C 281.272 180.692,282.858 180.807,285.431 180.811 C 288.003 180.815,289.579 180.704,288.932 180.563 C 287.434 180.238,283.403 180.234,281.905 180.556 M37.218 182.958 C 37.658 183.820,38.106 184.525,38.214 184.525 C 38.322 184.525,38.050 183.820,37.610 182.958 C 37.170 182.096,36.723 181.391,36.615 181.391 C 36.507 181.391,36.779 182.096,37.218 182.958 M293.470 181.532 C 293.560 181.609,294.163 181.791,294.809 181.935 C 295.667 182.127,295.826 182.091,295.397 181.800 C 294.868 181.442,293.077 181.193,293.470 181.532 M272.288 182.445 C 272.285 182.702,272.438 183.008,272.629 183.126 C 273.005 183.358,275.561 182.580,275.295 182.314 C 275.206 182.225,274.639 182.340,274.034 182.570 C 273.196 182.889,272.859 182.868,272.614 182.483 C 272.387 182.125,272.292 182.114,272.288 182.445 M297.551 182.566 C 297.982 182.751,298.599 182.903,298.923 182.903 C 299.293 182.903,299.221 182.778,298.727 182.566 C 298.296 182.381,297.679 182.229,297.356 182.229 C 296.985 182.229,297.058 182.354,297.551 182.566 M135.409 185.406 L 134.704 186.680 135.512 185.700 C 136.228 184.832,136.546 184.133,136.226 184.133 C 136.164 184.133,135.797 184.706,135.409 185.406 M39.569 187.267 C 40.222 188.560,40.844 189.618,40.952 189.618 C 41.059 189.618,40.613 188.560,39.961 187.267 C 39.308 185.975,38.686 184.917,38.578 184.917 C 38.471 184.917,38.916 185.975,39.569 187.267 M307.542 186.733 C 308.823 187.640,313.069 191.892,313.944 193.144 C 314.554 194.018,314.552 193.983,313.925 192.824 C 313.044 191.195,309.694 187.850,307.911 186.819 C 307.050 186.321,306.916 186.290,307.542 186.733 M131.616 191.615 C 131.166 192.498,130.865 193.287,130.947 193.369 C 131.029 193.451,131.480 192.729,131.948 191.764 C 133.016 189.567,132.727 189.437,131.616 191.615 M314.621 194.515 C 314.621 194.731,314.873 195.348,315.181 195.886 C 315.489 196.425,315.741 196.690,315.741 196.474 C 315.741 196.259,315.489 195.642,315.181 195.103 C 314.873 194.564,314.621 194.300,314.621 194.515 M337.922 195.201 C 338.068 195.686,338.349 196.255,338.546 196.465 C 338.743 196.676,338.706 196.279,338.464 195.584 C 337.968 194.160,337.510 193.837,337.922 195.201 M45.250 197.845 C 45.796 198.923,46.331 199.804,46.438 199.804 C 46.546 199.804,46.187 198.923,45.642 197.845 C 45.096 196.768,44.561 195.886,44.453 195.886 C 44.345 195.886,44.704 196.768,45.250 197.845 M339.881 200.294 C 340.027 200.779,340.308 201.348,340.505 201.558 C 340.702 201.769,340.665 201.372,340.423 200.677 C 339.927 199.253,339.468 198.930,339.881 200.294 M316.999 200.588 C 316.999 200.911,317.151 201.528,317.336 201.959 C 317.548 202.453,317.673 202.525,317.673 202.155 C 317.673 201.832,317.521 201.214,317.336 200.784 C 317.124 200.290,316.999 200.217,316.999 200.588 M127.198 204.071 C 127.053 204.795,126.954 205.762,126.977 206.219 C 127.001 206.677,127.176 206.259,127.367 205.289 C 127.558 204.319,127.657 203.352,127.587 203.140 C 127.518 202.928,127.342 203.347,127.198 204.071 M317.995 204.897 C 318.124 205.867,318.292 206.734,318.370 206.823 C 318.665 207.164,318.441 204.666,318.109 203.918 C 317.878 203.395,317.840 203.720,317.995 204.897 M341.839 205.387 C 341.986 205.872,342.267 206.441,342.464 206.651 C 342.661 206.862,342.624 206.465,342.382 205.770 C 341.886 204.347,341.427 204.023,341.839 205.387 M50.930 208.423 C 51.370 209.285,51.818 209.990,51.926 209.990 C 52.034 209.990,51.762 209.285,51.322 208.423 C 50.883 207.561,50.435 206.856,50.327 206.856 C 50.219 206.856,50.491 207.561,50.930 208.423 M126.695 213.712 C 126.696 216.513,126.758 217.608,126.833 216.144 C 126.909 214.681,126.909 212.389,126.832 211.051 C 126.756 209.714,126.694 210.911,126.695 213.712 M343.798 210.480 C 343.945 210.965,344.226 211.534,344.423 211.744 C 344.620 211.955,344.583 211.558,344.341 210.863 C 343.844 209.440,343.386 209.116,343.798 210.480 M319.028 213.908 C 319.028 215.309,319.100 215.881,319.186 215.181 C 319.273 214.481,319.273 213.335,319.186 212.635 C 319.100 211.934,319.028 212.507,319.028 213.908 M317.726 219.005 C 317.452 219.667,316.591 220.749,315.813 221.408 C 315.034 222.068,314.750 222.430,315.181 222.212 C 316.570 221.509,318.886 218.461,318.400 217.975 C 318.304 217.879,318.001 218.342,317.726 219.005 M126.981 222.168 C 127.006 222.904,127.171 224.035,127.346 224.682 C 127.556 225.455,127.590 225.052,127.447 223.506 C 127.206 220.916,126.908 220.059,126.981 222.168 M59.941 224.878 C 60.381 225.739,60.829 226.445,60.937 226.445 C 61.044 226.445,60.773 225.739,60.333 224.878 C 59.893 224.016,59.445 223.310,59.338 223.310 C 59.230 223.310,59.502 224.016,59.941 224.878 M305.478 226.263 C 304.674 226.809,304.016 227.341,304.016 227.444 C 304.016 227.547,304.721 227.164,305.583 226.594 C 306.951 225.688,307.414 225.269,307.045 225.269 C 306.987 225.269,306.282 225.716,305.478 226.263 M61.900 228.404 C 62.340 229.265,62.788 229.971,62.895 229.971 C 63.003 229.971,62.732 229.265,62.292 228.404 C 61.852 227.542,61.404 226.836,61.297 226.836 C 61.189 226.836,61.460 227.542,61.900 228.404 M301.861 228.425 C 300.999 228.833,300.523 229.171,300.803 229.177 C 301.373 229.188,303.624 228.095,303.624 227.806 C 303.624 227.577,303.740 227.536,301.861 228.425 M128.116 229.024 C 128.119 229.437,128.301 230.039,128.519 230.362 C 128.810 230.792,128.846 230.633,128.654 229.775 C 128.332 228.334,128.108 228.022,128.116 229.024 M286.582 234.142 C 284.094 235.205,283.228 235.741,284.755 235.271 C 286.129 234.848,289.774 233.151,289.324 233.143 C 289.109 233.140,287.875 233.589,286.582 234.142 M129.901 235.455 C 130.045 235.994,130.327 236.699,130.526 237.023 C 130.779 237.431,130.810 237.311,130.628 236.631 C 130.483 236.092,130.202 235.387,130.002 235.064 C 129.750 234.655,129.719 234.775,129.901 235.455 M66.797 237.414 C 67.132 238.061,67.493 238.590,67.601 238.590 C 67.709 238.590,67.523 238.061,67.189 237.414 C 66.855 236.768,66.493 236.239,66.385 236.239 C 66.278 236.239,66.463 236.768,66.797 237.414 M68.952 241.332 C 69.392 242.194,69.840 242.899,69.947 242.899 C 70.055 242.899,69.783 242.194,69.344 241.332 C 68.904 240.470,68.456 239.765,68.348 239.765 C 68.241 239.765,68.512 240.470,68.952 241.332 M131.636 240.501 C 131.636 240.690,131.103 241.066,130.452 241.336 C 129.801 241.605,129.165 241.992,129.040 242.195 C 128.914 242.399,129.535 242.196,130.419 241.745 C 131.762 241.060,132.565 240.157,131.832 240.157 C 131.724 240.157,131.636 240.312,131.636 240.501 M268.168 240.758 C 267.189 241.230,267.156 241.284,267.973 241.085 C 269.083 240.814,270.330 240.178,269.736 240.186 C 269.520 240.189,268.815 240.447,268.168 240.758 M70.911 244.858 C 71.351 245.720,71.798 246.425,71.906 246.425 C 72.014 246.425,71.742 245.720,71.303 244.858 C 70.863 243.996,70.415 243.291,70.307 243.291 C 70.200 243.291,70.471 243.996,70.911 244.858 M124.807 244.662 C 123.747 245.416,123.013 246.033,123.177 246.033 C 123.494 246.033,126.934 243.641,126.934 243.420 C 126.934 243.176,126.731 243.294,124.807 244.662 M121.178 247.433 L 120.078 248.441 121.352 247.555 C 122.052 247.068,122.625 246.614,122.625 246.547 C 122.625 246.238,122.192 246.503,121.178 247.433 M117.350 250.801 C 116.349 251.916,115.358 253.194,115.148 253.642 C 114.935 254.097,115.161 253.948,115.660 253.302 C 116.151 252.667,117.236 251.389,118.071 250.461 C 118.907 249.534,119.496 248.776,119.381 248.776 C 119.266 248.776,118.352 249.687,117.350 250.801 M74.829 251.910 C 75.268 252.772,75.716 253.477,75.824 253.477 C 75.932 253.477,75.660 252.772,75.220 251.910 C 74.781 251.048,74.333 250.343,74.225 250.343 C 74.117 250.343,74.389 251.048,74.829 251.910 M227.816 254.470 C 226.836 254.942,226.804 254.996,227.620 254.797 C 228.730 254.526,229.978 253.890,229.383 253.898 C 229.167 253.902,228.462 254.159,227.816 254.470 M82.664 266.405 C 83.104 267.267,83.552 267.973,83.659 267.973 C 83.767 267.973,83.496 267.267,83.056 266.405 C 82.616 265.544,82.168 264.838,82.060 264.838 C 81.953 264.838,82.224 265.544,82.664 266.405 M327.424 265.115 C 327.909 265.208,328.702 265.208,329.187 265.115 C 329.672 265.022,329.275 264.945,328.306 264.945 C 327.336 264.945,326.939 265.022,327.424 265.115 M110.343 267.277 C 110.207 268.414,110.119 270.490,110.148 271.890 C 110.187 273.828,110.277 273.365,110.522 269.950 C 110.861 265.230,110.764 263.776,110.343 267.277 M315.040 267.638 C 314.316 267.847,313.797 268.091,313.887 268.180 C 314.085 268.378,316.944 267.617,316.944 267.367 C 316.944 267.136,316.633 267.180,315.040 267.638 M367.511 268.560 C 367.511 268.776,367.763 269.393,368.071 269.931 C 368.378 270.470,368.630 270.735,368.630 270.519 C 368.630 270.304,368.378 269.687,368.071 269.148 C 367.763 268.609,367.511 268.345,367.511 268.560 M188.443 269.344 C 187.904 269.652,187.640 269.904,187.855 269.904 C 188.071 269.904,188.688 269.652,189.226 269.344 C 189.765 269.036,190.029 268.784,189.814 268.784 C 189.598 268.784,188.981 269.036,188.443 269.344 M326.543 269.358 C 325.558 269.832,325.526 269.885,326.347 269.688 C 326.885 269.558,327.494 269.295,327.698 269.104 C 328.206 268.629,327.927 268.691,326.543 269.358 M184.133 271.303 C 183.595 271.611,183.330 271.863,183.546 271.863 C 183.761 271.863,184.378 271.611,184.917 271.303 C 185.455 270.995,185.720 270.743,185.504 270.743 C 185.289 270.743,184.672 270.995,184.133 271.303 M369.469 273.262 C 369.469 273.477,369.721 274.094,370.029 274.633 C 370.337 275.171,370.589 275.436,370.589 275.220 C 370.589 275.005,370.337 274.388,370.029 273.849 C 369.721 273.310,369.469 273.046,369.469 273.262 M110.571 275.808 C 110.571 276.562,110.651 276.871,110.750 276.494 C 110.849 276.117,110.849 275.500,110.750 275.122 C 110.651 274.745,110.571 275.054,110.571 275.808 M89.716 279.726 C 90.156 280.588,90.604 281.293,90.711 281.293 C 90.819 281.293,90.547 280.588,90.108 279.726 C 89.668 278.864,89.220 278.159,89.112 278.159 C 89.005 278.159,89.276 278.864,89.716 279.726 M111.269 279.563 C 111.273 279.976,111.454 280.578,111.673 280.901 C 111.964 281.330,112.000 281.172,111.808 280.313 C 111.486 278.873,111.261 278.560,111.269 279.563 M164.055 280.143 C 162.816 280.782,161.802 281.393,161.802 281.501 C 161.802 281.676,166.464 279.456,166.863 279.092 C 167.375 278.622,166.012 279.133,164.055 280.143 M287.365 282.286 C 286.386 282.758,286.353 282.812,287.169 282.613 C 288.280 282.341,289.527 281.705,288.932 281.714 C 288.717 281.717,288.012 281.975,287.365 282.286 M112.272 282.860 C 112.416 283.399,112.697 284.104,112.897 284.427 C 113.149 284.835,113.180 284.716,112.998 284.035 C 112.854 283.497,112.572 282.791,112.373 282.468 C 112.120 282.060,112.090 282.179,112.272 282.860 M152.791 285.602 C 152.037 286.015,151.596 286.353,151.812 286.353 C 152.027 286.353,152.821 286.015,153.575 285.602 C 154.329 285.189,154.770 284.852,154.554 284.852 C 154.339 284.852,153.546 285.189,152.791 285.602 M114.006 287.018 C 114.006 288.776,120.449 295.352,121.320 294.482 C 121.424 294.378,121.131 294.173,120.670 294.027 C 119.301 293.592,117.104 291.441,115.504 288.970 C 114.680 287.697,114.006 286.819,114.006 287.018 M270.911 288.163 C 269.927 288.637,269.895 288.690,270.715 288.493 C 271.254 288.363,271.862 288.100,272.067 287.909 C 272.574 287.435,272.296 287.496,270.911 288.163 M95.593 290.695 C 96.032 291.557,96.480 292.262,96.588 292.262 C 96.696 292.262,96.424 291.557,95.984 290.695 C 95.545 289.833,95.097 289.128,94.989 289.128 C 94.881 289.128,95.153 289.833,95.593 290.695 M246.131 292.275 C 244.819 292.802,245.065 293.070,246.425 292.596 C 247.071 292.370,247.600 292.115,247.600 292.028 C 247.600 291.796,247.124 291.876,246.131 292.275 M379.242 293.979 C 379.235 294.387,380.788 296.964,381.041 296.964 C 381.137 296.964,380.953 296.479,380.632 295.886 C 379.781 294.316,379.249 293.585,379.242 293.979 M125.465 295.677 C 126.058 295.767,127.027 295.767,127.620 295.677 C 128.213 295.588,127.728 295.514,126.543 295.514 C 125.357 295.514,124.873 295.588,125.465 295.677 M381.858 298.561 C 382.248 299.224,382.816 299.973,383.122 300.226 C 383.428 300.479,383.185 299.936,382.581 299.021 C 381.312 297.098,380.812 296.779,381.858 298.561 M242.311 299.132 C 241.327 299.606,241.295 299.660,242.116 299.462 C 242.654 299.333,243.262 299.070,243.467 298.879 C 243.975 298.404,243.696 298.465,242.311 299.132 M102.057 302.840 C 102.816 304.349,103.526 305.583,103.634 305.583 C 103.741 305.583,103.208 304.349,102.449 302.840 C 101.689 301.332,100.979 300.098,100.872 300.098 C 100.764 300.098,101.297 301.332,102.057 302.840 M237.610 301.091 C 236.626 301.565,236.594 301.619,237.414 301.421 C 237.953 301.291,238.561 301.029,238.766 300.837 C 239.274 300.363,238.995 300.424,237.610 301.091 M384.544 302.547 C 384.744 303.074,384.591 303.243,383.881 303.278 C 383.152 303.313,383.111 303.362,383.685 303.510 C 384.694 303.770,385.424 302.994,384.776 302.351 C 384.380 301.958,384.334 301.997,384.544 302.547 M215.867 305.387 C 215.328 305.695,215.064 305.947,215.279 305.947 C 215.495 305.947,216.112 305.695,216.650 305.387 C 217.189 305.079,217.453 304.827,217.238 304.827 C 217.023 304.827,216.405 305.079,215.867 305.387 M374.143 305.601 C 373.714 305.891,373.872 305.927,374.731 305.735 C 376.171 305.413,376.484 305.189,375.482 305.197 C 375.069 305.200,374.466 305.382,374.143 305.601 M371.205 306.366 C 370.711 306.579,370.638 306.703,371.009 306.703 C 371.332 306.703,371.949 306.551,372.380 306.366 C 372.874 306.154,372.946 306.030,372.576 306.030 C 372.253 306.030,371.636 306.181,371.205 306.366 M361.269 309.166 C 360.546 309.375,360.027 309.618,360.116 309.708 C 360.314 309.906,363.173 309.145,363.173 308.894 C 363.173 308.664,362.862 308.708,361.269 309.166 M347.111 313.436 C 346.682 313.727,346.840 313.763,347.698 313.571 C 349.139 313.249,349.452 313.024,348.449 313.032 C 348.036 313.036,347.434 313.217,347.111 313.436 M108.521 314.985 C 108.961 315.847,109.409 316.552,109.516 316.552 C 109.624 316.552,109.353 315.847,108.913 314.985 C 108.473 314.123,108.025 313.418,107.917 313.418 C 107.810 313.418,108.081 314.123,108.521 314.985 M344.172 314.202 C 343.678 314.414,343.606 314.538,343.976 314.538 C 344.300 314.538,344.917 314.387,345.348 314.202 C 345.842 313.990,345.914 313.865,345.544 313.865 C 345.220 313.865,344.603 314.017,344.172 314.202 M339.667 315.395 C 339.238 315.685,339.396 315.722,340.255 315.530 C 341.695 315.208,342.008 314.983,341.006 314.991 C 340.593 314.995,339.990 315.176,339.667 315.395 M336.337 316.161 L 335.553 316.497 336.337 316.519 C 336.768 316.531,337.385 316.370,337.708 316.161 C 338.487 315.657,337.508 315.657,336.337 316.161 M322.233 320.078 C 321.739 320.291,321.667 320.415,322.037 320.415 C 322.360 320.415,322.977 320.264,323.408 320.078 C 323.902 319.866,323.975 319.742,323.604 319.742 C 323.281 319.742,322.664 319.893,322.233 320.078 M315.965 322.037 C 315.471 322.249,315.398 322.374,315.769 322.374 C 316.092 322.374,316.709 322.222,317.140 322.037 C 317.634 321.825,317.706 321.701,317.336 321.701 C 317.013 321.701,316.396 321.852,315.965 322.037 M302.504 326.013 C 301.780 326.221,301.263 326.467,301.356 326.560 C 301.449 326.653,302.306 326.484,303.260 326.185 C 305.208 325.574,304.550 325.424,302.504 326.013 M298.727 327.130 C 298.233 327.342,298.160 327.467,298.531 327.467 C 298.854 327.467,299.471 327.315,299.902 327.130 C 300.396 326.918,300.468 326.794,300.098 326.794 C 299.775 326.794,299.158 326.945,298.727 327.130 M291.087 329.089 C 290.300 329.341,290.261 329.405,290.891 329.414 C 291.322 329.421,292.027 329.274,292.458 329.089 C 293.457 328.660,292.427 328.660,291.087 329.089 M286.386 330.282 C 285.957 330.573,286.115 330.609,286.974 330.417 C 288.414 330.095,288.727 329.871,287.724 329.879 C 287.311 329.882,286.709 330.064,286.386 330.282 M283.056 331.048 L 282.272 331.385 283.056 331.406 C 283.487 331.418,284.104 331.257,284.427 331.048 C 285.206 330.545,284.227 330.545,283.056 331.048 M268.952 334.966 C 268.458 335.178,268.386 335.302,268.756 335.302 C 269.079 335.302,269.696 335.151,270.127 334.966 C 270.621 334.753,270.694 334.629,270.323 334.629 C 270.000 334.629,269.383 334.781,268.952 334.966 M239.765 343.976 C 239.243 344.314,239.243 344.356,239.765 344.356 C 240.088 344.356,240.617 344.185,240.940 343.976 C 241.463 343.639,241.463 343.597,240.940 343.597 C 240.617 343.597,240.088 343.768,239.765 343.976 M232.909 345.935 C 232.415 346.148,232.343 346.272,232.713 346.272 C 233.036 346.272,233.653 346.121,234.084 345.935 C 234.578 345.723,234.651 345.599,234.280 345.599 C 233.957 345.599,233.340 345.750,232.909 345.935 M126.151 347.894 C 126.591 348.756,127.038 349.461,127.146 349.461 C 127.254 349.461,126.982 348.756,126.543 347.894 C 126.103 347.032,125.655 346.327,125.547 346.327 C 125.440 346.327,125.711 347.032,126.151 347.894 M228.599 347.111 C 228.106 347.323,228.033 347.447,228.404 347.447 C 228.727 347.447,229.344 347.296,229.775 347.111 C 230.269 346.898,230.341 346.774,229.971 346.774 C 229.647 346.774,229.030 346.925,228.599 347.111 M225.857 347.894 C 225.363 348.106,225.291 348.231,225.661 348.231 C 225.984 348.231,226.601 348.079,227.032 347.894 C 227.526 347.682,227.599 347.558,227.228 347.558 C 226.905 347.558,226.288 347.709,225.857 347.894 M219.393 349.853 C 218.870 350.191,218.870 350.233,219.393 350.233 C 219.716 350.233,220.245 350.062,220.568 349.853 C 221.090 349.516,221.090 349.473,220.568 349.473 C 220.245 349.473,219.716 349.644,219.393 349.853 M205.093 354.764 C 204.113 355.236,204.081 355.290,204.897 355.091 C 206.007 354.819,207.255 354.183,206.660 354.192 C 206.445 354.195,205.739 354.453,205.093 354.764 M131.323 357.876 C 131.792 358.841,132.242 359.563,132.325 359.481 C 132.502 359.304,130.919 356.121,130.653 356.121 C 130.553 356.121,130.854 356.911,131.323 357.876 M196.474 357.898 C 195.494 358.370,195.462 358.424,196.278 358.225 C 197.388 357.954,198.636 357.318,198.041 357.326 C 197.826 357.330,197.120 357.587,196.474 357.898 M190.989 359.857 C 190.010 360.329,189.977 360.383,190.793 360.184 C 191.903 359.912,193.151 359.276,192.556 359.285 C 192.341 359.288,191.636 359.546,190.989 359.857 M133.282 361.794 C 133.751 362.758,134.201 363.481,134.283 363.399 C 134.461 363.221,132.878 360.039,132.612 360.039 C 132.512 360.039,132.813 360.829,133.282 361.794 M179.628 363.775 C 178.648 364.247,178.616 364.301,179.432 364.102 C 180.542 363.830,181.790 363.194,181.195 363.203 C 180.979 363.206,180.274 363.463,179.628 363.775 M136.365 368.071 C 136.365 368.286,136.617 368.903,136.925 369.442 C 137.233 369.980,137.484 370.245,137.484 370.029 C 137.484 369.814,137.233 369.197,136.925 368.658 C 136.617 368.119,136.365 367.855,136.365 368.071 M164.545 369.638 C 164.006 369.946,163.741 370.198,163.957 370.198 C 164.172 370.198,164.789 369.946,165.328 369.638 C 165.867 369.330,166.131 369.078,165.916 369.078 C 165.700 369.078,165.083 369.330,164.545 369.638 M159.843 371.596 C 159.305 371.904,159.040 372.156,159.256 372.156 C 159.471 372.156,160.088 371.904,160.627 371.596 C 161.166 371.289,161.430 371.037,161.214 371.037 C 160.999 371.037,160.382 371.289,159.843 371.596 M156.905 372.786 C 155.925 373.257,155.893 373.312,156.709 373.112 C 157.819 372.841,159.067 372.205,158.472 372.214 C 158.257 372.217,157.551 372.474,156.905 372.786 M150.049 375.514 C 149.510 375.822,149.246 376.074,149.461 376.074 C 149.677 376.074,150.294 375.822,150.833 375.514 C 151.371 375.206,151.636 374.954,151.420 374.954 C 151.205 374.954,150.588 375.206,150.049 375.514 " stroke="none" fill="#a0a0a0" fill-rule="evenodd"></path><path id="path4" d="M224.094 7.444 C 224.633 7.616,225.426 7.757,225.857 7.757 C 226.477 7.757,226.437 7.692,225.661 7.444 C 225.122 7.271,224.329 7.130,223.898 7.130 C 223.278 7.130,223.318 7.195,224.094 7.444 M231.053 8.504 C 231.540 8.598,232.245 8.594,232.620 8.496 C 232.994 8.398,232.595 8.322,231.734 8.326 C 230.872 8.330,230.565 8.411,231.053 8.504 M238.394 9.403 C 238.825 9.588,239.442 9.739,239.765 9.739 C 240.135 9.739,240.063 9.615,239.569 9.403 C 239.138 9.217,238.521 9.066,238.198 9.066 C 237.827 9.066,237.900 9.190,238.394 9.403 M284.427 25.895 C 285.377 26.442,285.528 26.628,284.916 26.503 C 284.431 26.403,284.133 26.482,284.254 26.677 C 284.549 27.154,285.994 27.132,285.994 26.651 C 285.994 26.441,285.474 26.000,284.838 25.671 C 283.147 24.796,282.823 24.972,284.427 25.895 M274.857 30.762 C 273.795 31.496,272.649 32.385,272.310 32.737 C 271.971 33.088,272.884 32.552,274.339 31.545 C 275.793 30.538,276.983 29.640,276.983 29.549 C 276.983 29.297,276.928 29.329,274.857 30.762 M160.333 37.263 C 158.998 38.119,158.566 38.693,159.745 38.044 C 160.644 37.550,162.052 36.461,161.802 36.454 C 161.694 36.451,161.033 36.815,160.333 37.263 M156.709 39.604 C 156.059 40.136,155.993 40.269,156.513 40.000 C 157.791 39.340,158.500 38.797,158.080 38.800 C 157.865 38.802,157.248 39.163,156.709 39.604 M147.405 45.491 C 146.069 46.346,145.637 46.920,146.817 46.272 C 147.716 45.778,149.124 44.689,148.874 44.681 C 148.766 44.678,148.105 45.042,147.405 45.491 M290.151 48.384 C 290.473 49.824,290.697 50.137,290.689 49.135 C 290.686 48.722,290.504 48.119,290.286 47.796 C 289.995 47.367,289.959 47.526,290.151 48.384 M248.542 52.111 C 246.367 54.263,244.695 56.024,244.828 56.024 C 244.960 56.024,246.825 54.261,248.972 52.106 C 251.118 49.951,252.790 48.190,252.686 48.193 C 252.582 48.196,250.718 49.959,248.542 52.111 M259.626 52.314 C 259.021 52.846,258.682 53.281,258.872 53.281 C 259.062 53.281,259.631 52.840,260.137 52.302 C 261.308 51.055,261.049 51.062,259.626 52.314 M234.672 53.039 C 234.672 53.460,235.838 55.632,236.063 55.632 C 236.171 55.632,235.968 55.059,235.612 54.358 C 234.884 52.929,234.672 52.630,234.672 53.039 M256.590 55.142 L 255.240 56.611 256.709 55.261 C 258.077 54.004,258.358 53.673,258.059 53.673 C 257.994 53.673,257.333 54.334,256.590 55.142 M129.383 57.244 C 128.048 58.099,127.615 58.673,128.795 58.025 C 129.694 57.531,131.102 56.442,130.852 56.434 C 130.744 56.431,130.083 56.795,129.383 57.244 M124.682 60.378 C 123.346 61.233,122.914 61.808,124.094 61.159 C 124.993 60.665,126.401 59.576,126.151 59.569 C 126.043 59.565,125.382 59.930,124.682 60.378 M118.016 64.849 C 116.888 65.609,115.965 66.316,115.965 66.420 C 115.965 66.524,116.934 65.966,118.119 65.179 C 120.002 63.929,120.555 63.467,120.171 63.467 C 120.114 63.467,119.145 64.089,118.016 64.849 M242.507 65.039 C 242.831 65.245,243.609 65.417,244.238 65.420 C 245.753 65.428,245.423 65.202,243.487 64.905 C 242.420 64.741,242.107 64.784,242.507 65.039 M98.348 78.369 C 96.524 79.654,95.163 80.705,95.324 80.705 C 95.669 80.705,101.861 76.407,101.861 76.167 C 101.861 75.900,101.799 75.939,98.348 78.369 M91.087 83.678 L 89.912 84.688 91.185 83.845 C 91.885 83.382,92.458 82.926,92.458 82.833 C 92.458 82.540,92.292 82.642,91.087 83.678 M77.963 93.290 C 76.597 94.487,76.597 94.488,77.853 93.653 C 78.547 93.191,79.218 92.646,79.345 92.440 C 79.723 91.829,79.410 92.021,77.963 93.290 M70.911 98.562 C 68.748 100.273,67.943 101.109,69.540 99.985 C 71.109 98.882,73.114 97.190,72.870 97.178 C 72.762 97.172,71.881 97.795,70.911 98.562 M62.292 105.420 L 60.529 107.018 62.390 105.567 C 64.021 104.296,64.505 103.817,64.153 103.821 C 64.099 103.821,63.262 104.541,62.292 105.420 M50.811 114.606 C 50.206 115.138,49.867 115.573,50.057 115.573 C 50.247 115.573,50.816 115.132,51.322 114.594 C 52.493 113.347,52.234 113.353,50.811 114.606 M46.400 118.413 L 45.250 119.687 46.523 118.536 C 47.223 117.903,47.796 117.330,47.796 117.263 C 47.796 116.960,47.473 117.226,46.400 118.413 M167.973 121.046 C 169.028 121.499,169.086 122.086,168.183 123.182 C 167.628 123.855,167.678 123.843,168.471 123.109 C 169.544 122.118,169.225 120.947,167.833 120.764 C 167.262 120.689,167.295 120.754,167.973 121.046 M99.608 131.289 C 98.273 132.144,97.841 132.718,99.021 132.070 C 99.919 131.576,101.328 130.487,101.077 130.479 C 100.970 130.476,100.309 130.840,99.608 131.289 M85.994 140.885 L 84.427 142.288 86.092 141.042 C 87.525 139.971,88.042 139.454,87.659 139.477 C 87.605 139.480,86.856 140.114,85.994 140.885 M98.335 156.121 C 97.605 156.660,97.174 157.095,97.377 157.087 C 97.771 157.072,100.250 155.147,99.880 155.144 C 99.760 155.143,99.065 155.583,98.335 156.121 M174.442 160.124 C 175.038 160.214,175.919 160.212,176.401 160.119 C 176.883 160.026,176.396 159.952,175.318 159.955 C 174.241 159.958,173.847 160.034,174.442 160.124 M180.514 160.120 C 181.001 160.214,181.706 160.211,182.081 160.112 C 182.456 160.014,182.057 159.938,181.195 159.942 C 180.333 159.946,180.027 160.027,180.514 160.120 M59.335 162.684 L 57.786 164.349 59.452 162.800 C 61.000 161.360,61.297 161.019,61.000 161.019 C 60.936 161.019,60.187 161.768,59.335 162.684 M24.240 161.998 C 24.451 162.429,24.911 163.134,25.262 163.565 L 25.900 164.349 25.516 163.565 C 25.304 163.134,24.844 162.429,24.493 161.998 L 23.855 161.214 24.240 161.998 M240.451 165.605 C 240.935 165.698,241.729 165.698,242.214 165.605 C 242.698 165.511,242.302 165.435,241.332 165.435 C 240.362 165.435,239.966 165.511,240.451 165.605 M246.327 165.605 C 246.812 165.698,247.605 165.698,248.090 165.605 C 248.575 165.511,248.178 165.435,247.209 165.435 C 246.239 165.435,245.842 165.511,246.327 165.605 M234.476 166.503 C 233.982 166.716,233.910 166.840,234.280 166.840 C 234.603 166.840,235.220 166.689,235.651 166.503 C 236.145 166.291,236.218 166.167,235.847 166.167 C 235.524 166.167,234.907 166.318,234.476 166.503 M252.889 166.503 C 253.320 166.689,254.025 166.835,254.456 166.829 C 255.086 166.819,255.048 166.756,254.261 166.503 C 252.921 166.074,251.891 166.074,252.889 166.503 M201.567 168.665 C 201.998 169.016,202.703 169.476,203.134 169.688 L 203.918 170.073 203.134 169.435 C 202.703 169.084,201.998 168.624,201.567 168.412 L 200.784 168.027 201.567 168.665 M28.941 169.442 C 29.152 169.873,29.613 170.578,29.964 171.009 L 30.602 171.792 30.217 171.009 C 30.005 170.578,29.545 169.873,29.194 169.442 L 28.556 168.658 28.941 169.442 M223.115 171.827 L 221.939 172.837 223.213 171.994 C 223.913 171.531,224.486 171.075,224.486 170.982 C 224.486 170.689,224.320 170.791,223.115 171.827 M144.551 175.024 L 142.409 177.277 144.662 175.136 C 146.755 173.146,147.094 172.772,146.803 172.772 C 146.742 172.772,145.729 173.786,144.551 175.024 M216.822 176.787 L 215.671 178.061 217.040 176.885 C 217.793 176.239,218.484 175.666,218.575 175.612 C 218.665 175.558,218.567 175.514,218.356 175.514 C 218.145 175.514,217.454 176.087,216.822 176.787 M140.426 179.530 L 139.275 180.803 140.548 179.652 C 141.735 178.580,142.002 178.257,141.699 178.257 C 141.632 178.257,141.059 178.830,140.426 179.530 M284.329 180.884 C 284.814 180.977,285.607 180.977,286.092 180.884 C 286.577 180.790,286.180 180.714,285.211 180.714 C 284.241 180.714,283.844 180.790,284.329 180.884 M333.623 182.566 C 333.767 183.105,334.049 183.810,334.248 184.133 C 334.501 184.542,334.531 184.422,334.349 183.741 C 334.205 183.203,333.924 182.498,333.724 182.174 C 333.472 181.766,333.441 181.885,333.623 182.566 M310.659 189.716 C 311.620 190.739,312.457 191.577,312.520 191.577 C 312.815 191.577,312.504 191.225,310.774 189.602 L 308.913 187.855 310.659 189.716 M127.092 213.908 C 127.092 217.248,127.152 218.614,127.226 216.944 C 127.299 215.274,127.299 212.542,127.226 210.872 C 127.152 209.202,127.092 210.568,127.092 213.908 M318.218 209.794 C 318.223 210.656,318.303 210.963,318.397 210.475 C 318.490 209.988,318.487 209.283,318.389 208.908 C 318.291 208.534,318.214 208.932,318.218 209.794 M318.584 213.369 C 318.544 214.474,318.424 215.972,318.317 216.699 L 318.122 218.022 318.532 216.717 C 318.757 215.999,318.878 214.501,318.799 213.387 L 318.656 211.361 318.584 213.369 M348.511 221.743 C 348.655 222.282,348.936 222.987,349.136 223.310 C 349.388 223.719,349.419 223.599,349.237 222.919 C 349.093 222.380,348.811 221.675,348.612 221.352 C 348.359 220.943,348.328 221.063,348.511 221.743 M352.661 232.341 C 352.890 232.999,353.151 233.464,353.239 233.375 C 353.433 233.181,352.694 231.146,352.430 231.146 C 352.328 231.146,352.432 231.684,352.661 232.341 M66.210 237.023 C 66.649 237.884,67.097 238.590,67.205 238.590 C 67.313 238.590,67.041 237.884,66.601 237.023 C 66.162 236.161,65.714 235.455,65.606 235.455 C 65.498 235.455,65.770 236.161,66.210 237.023 M121.254 247.839 L 119.687 249.242 121.352 247.996 C 122.785 246.925,123.302 246.408,122.919 246.431 C 122.865 246.434,122.116 247.068,121.254 247.839 M116.114 252.791 C 114.766 255.079,114.678 255.275,115.364 254.456 C 116.160 253.508,116.846 252.302,116.589 252.302 C 116.487 252.302,116.273 252.522,116.114 252.791 M225.857 254.862 C 224.877 255.334,224.845 255.388,225.661 255.189 C 226.771 254.917,228.019 254.281,227.424 254.290 C 227.209 254.293,226.503 254.551,225.857 254.862 M221.058 256.623 C 219.746 257.151,219.991 257.419,221.352 256.944 C 221.998 256.719,222.527 256.464,222.527 256.377 C 222.527 256.145,222.050 256.225,221.058 256.623 M204.310 262.697 C 203.330 263.169,203.297 263.224,204.114 263.024 C 205.224 262.753,206.471 262.117,205.877 262.126 C 205.661 262.129,204.956 262.386,204.310 262.697 M111.089 264.664 C 110.942 265.451,110.900 266.172,110.995 266.268 C 111.091 266.364,111.290 265.799,111.438 265.013 C 111.585 264.226,111.627 263.505,111.532 263.409 C 111.436 263.313,111.237 263.878,111.089 264.664 M110.605 271.107 C 110.605 272.507,110.676 273.080,110.763 272.380 C 110.850 271.680,110.850 270.534,110.763 269.833 C 110.676 269.133,110.605 269.706,110.605 271.107 M156.709 283.448 C 156.170 283.756,155.906 284.007,156.121 284.007 C 156.337 284.007,156.954 283.756,157.493 283.448 C 158.031 283.140,158.296 282.888,158.080 282.888 C 157.865 282.888,157.248 283.140,156.709 283.448 M116.748 290.818 C 116.748 290.885,117.321 291.458,118.022 292.091 L 119.295 293.242 118.144 291.969 C 117.072 290.782,116.748 290.515,116.748 290.818 M132.326 294.107 C 132.813 294.200,133.518 294.197,133.893 294.099 C 134.267 294.001,133.869 293.924,133.007 293.928 C 132.145 293.933,131.838 294.013,132.326 294.107 M125.269 295.288 C 125.970 295.375,127.116 295.375,127.816 295.288 C 128.516 295.201,127.943 295.130,126.543 295.130 C 125.142 295.130,124.569 295.201,125.269 295.288 M381.536 297.160 C 381.748 297.591,382.208 298.296,382.559 298.727 L 383.197 299.510 382.812 298.727 C 382.601 298.296,382.141 297.591,381.790 297.160 L 381.152 296.376 381.536 297.160 M369.638 307.150 C 369.144 307.362,369.071 307.487,369.442 307.487 C 369.765 307.487,370.382 307.335,370.813 307.150 C 371.307 306.938,371.379 306.813,371.009 306.813 C 370.686 306.813,370.069 306.965,369.638 307.150 M115.769 329.089 C 116.103 329.736,116.465 330.264,116.573 330.264 C 116.680 330.264,116.495 329.736,116.161 329.089 C 115.826 328.443,115.465 327.914,115.357 327.914 C 115.249 327.914,115.435 328.443,115.769 329.089 M294.221 328.697 C 293.414 328.956,293.380 329.017,294.025 329.044 C 294.456 329.062,295.073 328.906,295.397 328.697 C 296.083 328.254,295.607 328.254,294.221 328.697 M281.489 331.832 C 280.995 332.044,280.922 332.168,281.293 332.168 C 281.616 332.168,282.233 332.017,282.664 331.832 C 283.158 331.619,283.230 331.495,282.860 331.495 C 282.537 331.495,281.920 331.646,281.489 331.832 M278.550 332.615 C 277.744 332.873,277.709 332.935,278.355 332.962 C 278.786 332.980,279.403 332.824,279.726 332.615 C 280.412 332.171,279.936 332.171,278.550 332.615 M118.707 334.574 C 119.147 335.436,119.595 336.141,119.703 336.141 C 119.810 336.141,119.539 335.436,119.099 334.574 C 118.659 333.712,118.211 333.007,118.104 333.007 C 117.996 333.007,118.267 333.712,118.707 334.574 M121.841 340.451 C 122.281 341.312,122.729 342.018,122.837 342.018 C 122.944 342.018,122.673 341.312,122.233 340.451 C 121.793 339.589,121.345 338.883,121.238 338.883 C 121.130 338.883,121.402 339.589,121.841 340.451 M231.342 346.719 C 230.848 346.931,230.776 347.056,231.146 347.056 C 231.469 347.056,232.086 346.904,232.517 346.719 C 233.011 346.507,233.083 346.382,232.713 346.382 C 232.390 346.382,231.773 346.534,231.342 346.719 M203.918 355.548 C 202.938 356.019,202.905 356.074,203.722 355.874 C 204.832 355.603,206.080 354.967,205.485 354.976 C 205.269 354.979,204.564 355.236,203.918 355.548 " stroke="none" fill="#747474" fill-rule="evenodd"></path></g></svg>